<svg width="32" height="32" viewBox="0 0 32 32" fill="none" xmlns="http://www.w3.org/2000/svg">
<path d="M17.2509 4.66797C18.6197 4.67162 19.3145 4.67892 19.9143 4.69595L20.1504 4.70447C20.4229 4.7142 20.6918 4.72637 21.0167 4.74097C22.3113 4.80181 23.1946 5.00622 23.9697 5.30675C24.7727 5.61581 25.4492 6.03436 26.1258 6.70965C26.7447 7.31769 27.2235 8.0535 27.5286 8.86571C27.8292 9.64077 28.0336 10.5241 28.0944 11.8199C28.109 12.1436 28.1212 12.4125 28.1309 12.6863L28.1382 12.9223C28.1565 13.5209 28.1638 14.2157 28.1662 15.5845L28.1674 16.4922V18.0861C28.1704 18.9736 28.1611 19.8611 28.1394 20.7483L28.1321 20.9844C28.1224 21.2582 28.1102 21.5271 28.0956 21.8507C28.0348 23.1465 27.828 24.0287 27.5286 24.8049C27.2235 25.6171 26.7447 26.353 26.1258 26.961C25.5177 27.5799 24.7819 28.0587 23.9697 28.3639C23.1946 28.6644 22.3113 28.8688 21.0167 28.9297L20.1504 28.9662L19.9143 28.9735C19.3145 28.9905 18.6197 28.999 17.2509 29.0015L16.3432 29.0027H14.7505C13.8626 29.0058 12.9747 28.9965 12.0871 28.9747L11.851 28.9674C11.5622 28.9565 11.2734 28.9439 10.9847 28.9297C9.69009 28.8688 8.80674 28.6644 8.03046 28.3639C7.21869 28.0586 6.48331 27.5798 5.87562 26.961C5.25624 26.3531 4.77704 25.6173 4.47151 24.8049C4.17098 24.0299 3.96656 23.1465 3.90573 21.8507L3.86923 20.9844L3.86314 20.7483C3.84071 19.8611 3.83057 18.9736 3.83272 18.0861V15.5845C3.82936 14.697 3.83828 13.8095 3.85949 12.9223L3.86801 12.6863C3.87774 12.4125 3.88991 12.1436 3.90451 11.8199C3.96535 10.5241 4.16976 9.64198 4.47029 8.86571C4.77654 8.05317 5.25658 7.31733 5.87684 6.70965C6.48418 6.091 7.21913 5.61224 8.03046 5.30675C8.80674 5.00622 9.68887 4.80181 10.9847 4.74097C11.3083 4.72637 11.5785 4.7142 11.851 4.70447L12.0871 4.69717C12.9743 4.67555 13.8618 4.66622 14.7493 4.66919L17.2509 4.66797ZM16.0001 10.7516C14.3866 10.7516 12.8392 11.3926 11.6983 12.5335C10.5574 13.6744 9.9164 15.2218 9.9164 16.8353C9.9164 18.4488 10.5574 19.9962 11.6983 21.1371C12.8392 22.278 14.3866 22.919 16.0001 22.919C17.6136 22.919 19.161 22.278 20.3019 21.1371C21.4428 19.9962 22.0838 18.4488 22.0838 16.8353C22.0838 15.2218 21.4428 13.6744 20.3019 12.5335C19.161 11.3926 17.6136 10.7516 16.0001 10.7516ZM16.0001 13.1851C16.4794 13.185 16.9541 13.2794 17.397 13.4627C17.8399 13.6461 18.2423 13.9149 18.5813 14.2538C18.9204 14.5927 19.1893 14.9951 19.3728 15.4379C19.5563 15.8807 19.6508 16.3554 19.6509 16.8347C19.651 17.3141 19.5566 17.7887 19.3733 18.2316C19.1899 18.6745 18.9211 19.077 18.5822 19.416C18.2433 19.755 17.841 20.0239 17.3981 20.2074C16.9553 20.391 16.4806 20.4855 16.0013 20.4855C15.0332 20.4855 14.1048 20.101 13.4202 19.4164C12.7357 18.7319 12.3511 17.8034 12.3511 16.8353C12.3511 15.8672 12.7357 14.9388 13.4202 14.2542C14.1048 13.5697 15.0332 13.1851 16.0013 13.1851M22.3892 8.92654C21.9858 8.92654 21.5989 9.08678 21.3137 9.37201C21.0285 9.65724 20.8682 10.0441 20.8682 10.4475C20.8682 10.8508 21.0285 11.2377 21.3137 11.5229C21.5989 11.8081 21.9858 11.9684 22.3892 11.9684C22.7925 11.9684 23.1794 11.8081 23.4646 11.5229C23.7498 11.2377 23.9101 10.8508 23.9101 10.4475C23.9101 10.0441 23.7498 9.65724 23.4646 9.37201C23.1794 9.08678 22.7925 8.92654 22.3892 8.92654Z" fill="#F0F4FF"/>
</svg>
