<svg width="32" height="32" viewBox="0 0 32 32" fill="none" xmlns="http://www.w3.org/2000/svg">
<path d="M25.3895 3.92969C26.101 3.92969 26.7834 4.21233 27.2865 4.71544C27.7896 5.21855 28.0723 5.90091 28.0723 6.61241V25.3915C28.0723 26.103 27.7896 26.7854 27.2865 27.2885C26.7834 27.7916 26.101 28.0742 25.3895 28.0742H6.61046C5.89896 28.0742 5.2166 27.7916 4.71349 27.2885C4.21038 26.7854 3.92773 26.103 3.92773 25.3915V6.61241C3.92773 5.90091 4.21038 5.21855 4.71349 4.71544C5.2166 4.21233 5.89896 3.92969 6.61046 3.92969H25.3895ZM24.7189 24.7208V17.6116C24.7189 16.4518 24.2581 15.3396 23.4381 14.5195C22.618 13.6995 21.5058 13.2387 20.346 13.2387C19.2059 13.2387 17.8779 13.9363 17.2341 14.9825V13.4936H13.4917V24.7208H17.2341V18.1079C17.2341 17.075 18.0657 16.23 19.0985 16.23C19.5966 16.23 20.0743 16.4278 20.4264 16.78C20.7786 17.1322 20.9765 17.6098 20.9765 18.1079V24.7208H24.7189ZM9.13222 11.3877C9.72988 11.3877 10.3031 11.1502 10.7257 10.7276C11.1483 10.305 11.3857 9.73184 11.3857 9.13418C11.3857 7.88671 10.3797 6.86727 9.13222 6.86727C8.531 6.86727 7.95441 7.10611 7.52928 7.53123C7.10415 7.95636 6.86532 8.53296 6.86532 9.13418C6.86532 10.3816 7.88475 11.3877 9.13222 11.3877ZM10.9967 24.7208V13.4936H7.28114V24.7208H10.9967Z" fill="#F0F4FF"/>
</svg>
