<svg width="24" height="24" viewBox="0 0 24 24" fill="none" xmlns="http://www.w3.org/2000/svg">
<g id="fi_764741">
<g id="Group 46819">
<g id="Group">
<g id="Group_2">
<g id="Group 1321314040">
<g id="Group_3">
<g id="Group_4">
<path id="Vector" d="M13.9903 9.49992C11.081 8.89003 8.80702 6.61608 8.19722 3.70673C8.12231 3.34959 7.80731 3.09375 7.4423 3.09375C7.07728 3.09375 6.76228 3.34959 6.68742 3.70678C6.07758 6.61608 3.80362 8.88998 0.894328 9.49978C0.537141 9.57464 0.28125 9.88969 0.28125 10.2547C0.28125 10.6196 0.537094 10.9347 0.894328 11.0095C3.80358 11.6194 6.07744 13.8933 6.68728 16.8027C6.76214 17.1599 7.07714 17.4158 7.44216 17.4158C7.80713 17.4158 8.12217 17.1599 8.19703 16.8027C8.80692 13.8934 11.0809 11.6195 13.9902 11.0097C14.3474 10.9349 14.6033 10.6199 14.6033 10.2548C14.6033 9.88983 14.3474 9.57478 13.9903 9.49992Z" fill="white"/>
</g>
</g>
<path id="Vector_2" d="M23.1357 15.0993C21.2829 14.7108 19.8348 13.2627 19.4464 11.41C19.3715 11.0528 19.0565 10.7969 18.6915 10.7969C18.3266 10.7969 18.0115 11.0527 17.9367 11.4099C17.5482 13.2627 16.1001 14.7108 14.2474 15.0992C13.8902 15.174 13.6343 15.4891 13.6343 15.854C13.6343 16.219 13.8901 16.534 14.2474 16.6089C16.1001 16.9973 17.5482 18.4454 17.9366 20.2982C18.0114 20.6554 18.3264 20.9113 18.6914 20.9113C19.0564 20.9113 19.3714 20.6555 19.4463 20.2982C19.8348 18.4454 21.2829 16.9973 23.1356 16.609C23.4928 16.5341 23.7487 16.2191 23.7487 15.8541C23.7487 15.4892 23.4928 15.1741 23.1357 15.0993Z" fill="white"/>
</g>
</g>
</g>
</g>
</g>
</svg>
