<svg xmlns="http://www.w3.org/2000/svg" xmlns:xlink="http://www.w3.org/1999/xlink" width="250" height="74.074" viewBox="0 0 250 74.074"><defs><linearGradient id="a" x1="0.908" y1="1.032" x2="-0.383" y2="0.36" gradientUnits="objectBoundingBox"><stop offset="0" stop-color="#00a0ff"/><stop offset="0.007" stop-color="#00a1ff"/><stop offset="0.26" stop-color="#00beff"/><stop offset="0.512" stop-color="#00d2ff"/><stop offset="0.76" stop-color="#00dfff"/><stop offset="1" stop-color="#00e3ff"/></linearGradient><linearGradient id="b" x1="1.077" y1="0.729" x2="-1.307" y2="0.729" gradientUnits="objectBoundingBox"><stop offset="0" stop-color="#ffe000"/><stop offset="0.409" stop-color="#ffbd00"/><stop offset="0.775" stop-color="orange"/><stop offset="1" stop-color="#ff9c00"/></linearGradient><linearGradient id="c" x1="0.864" y1="-0.023" x2="-0.499" y2="-1.789" gradientUnits="objectBoundingBox"><stop offset="0" stop-color="#ff3a44"/><stop offset="1" stop-color="#c31162"/></linearGradient><linearGradient id="d" x1="-0.186" y1="2.701" x2="0.423" y2="1.909" gradientUnits="objectBoundingBox"><stop offset="0" stop-color="#32a071"/><stop offset="0.069" stop-color="#2da771"/><stop offset="0.476" stop-color="#15cf74"/><stop offset="0.801" stop-color="#06e775"/><stop offset="1" stop-color="#00f076"/></linearGradient></defs><path d="M240.741,74.074H9.259A9.169,9.169,0,0,1,0,64.815V9.259A9.169,9.169,0,0,1,9.259,0H240.741A9.169,9.169,0,0,1,250,9.259V64.815A9.169,9.169,0,0,1,240.741,74.074Z"/><path d="M240.741,1.481a7.825,7.825,0,0,1,7.778,7.778V64.815a7.825,7.825,0,0,1-7.778,7.778H9.259a7.825,7.825,0,0,1-7.778-7.778V9.259A7.825,7.825,0,0,1,9.259,1.481H240.741m0-1.481H9.259A9.286,9.286,0,0,0,0,9.259V64.815a9.169,9.169,0,0,0,9.259,9.259H240.741A9.169,9.169,0,0,0,250,64.815V9.259A9.286,9.286,0,0,0,240.741,0Z" fill="#a6a6a6"/><path d="M52.511,13.011a5.044,5.044,0,0,1-1.3,3.7,5.813,5.813,0,0,1-8.148,0A5.445,5.445,0,0,1,41.4,12.641a5.445,5.445,0,0,1,1.667-4.074A5.445,5.445,0,0,1,47.141,6.9a4.931,4.931,0,0,1,2.222.556,4.033,4.033,0,0,1,1.667,1.3l-.926.926a3.453,3.453,0,0,0-2.963-1.3,3.685,3.685,0,0,0-2.963,1.3,3.815,3.815,0,0,0-1.3,3.148,3.815,3.815,0,0,0,1.3,3.148,4.768,4.768,0,0,0,2.963,1.3,4.062,4.062,0,0,0,3.148-1.3,3.067,3.067,0,0,0,.926-2.222H47.141V12.27h5.37v.741Zm8.519-4.63h-5V11.9h4.63v1.3H56.03v3.519h5V18.2H54.548V7.085H61.03ZM67.141,18.2H65.659V8.381H62.511v-1.3h7.778v1.3H67.141Zm8.519,0V7.085h1.481V18.2Zm7.778,0H81.956V8.381H78.807v-1.3H86.4v1.3H83.252V18.2Zm17.593-1.481a5.813,5.813,0,0,1-8.148,0,5.445,5.445,0,0,1-1.667-4.074,5.445,5.445,0,0,1,1.667-4.074,5.813,5.813,0,0,1,8.148,0,5.445,5.445,0,0,1,1.667,4.074A5.445,5.445,0,0,1,101.03,16.715Zm-7.037-.926a4.37,4.37,0,0,0,2.963,1.3,3.685,3.685,0,0,0,2.963-1.3,4.468,4.468,0,0,0,1.3-3.148,3.815,3.815,0,0,0-1.3-3.148,4.37,4.37,0,0,0-2.963-1.3,3.685,3.685,0,0,0-2.963,1.3,4.468,4.468,0,0,0-1.3,3.148A3.815,3.815,0,0,0,93.993,15.789ZM104.733,18.2V7.085H106.4l5.37,8.7v-8.7h1.481V18.2H111.77L106.03,9.122V18.2h-1.3Z" transform="translate(35.267 5.878)" fill="#fff" stroke="#fff" stroke-miterlimit="10" strokeWidth="0.2"/><path d="M91.1,25.8a7.791,7.791,0,0,0-7.963,7.963A7.9,7.9,0,0,0,91.1,41.73a7.791,7.791,0,0,0,7.963-7.963A7.683,7.683,0,0,0,91.1,25.8Zm0,12.593a4.6,4.6,0,0,1-4.444-4.815A4.6,4.6,0,0,1,91.1,28.767a4.486,4.486,0,0,1,4.444,4.815A4.6,4.6,0,0,1,91.1,38.4ZM73.878,25.8a7.791,7.791,0,0,0-7.963,7.963,7.9,7.9,0,0,0,7.963,7.963,7.791,7.791,0,0,0,7.963-7.963A7.683,7.683,0,0,0,73.878,25.8Zm0,12.593a4.6,4.6,0,0,1-4.444-4.815,4.6,4.6,0,0,1,4.444-4.815,4.486,4.486,0,0,1,4.444,4.815A4.6,4.6,0,0,1,73.878,38.4ZM53.322,28.211v3.333h7.963A7,7,0,0,1,59.433,35.8a8.2,8.2,0,0,1-6.111,2.407,8.622,8.622,0,0,1-8.7-8.889,8.735,8.735,0,0,1,8.7-8.889,9.182,9.182,0,0,1,6.111,2.407l2.407-2.407A11.867,11.867,0,0,0,53.507,17.1,12.492,12.492,0,0,0,41.1,29.322,12.492,12.492,0,0,0,53.507,41.544a10.657,10.657,0,0,0,8.519-3.519,11.148,11.148,0,0,0,2.963-7.778,6.944,6.944,0,0,0-.185-2.037H53.322ZM137.4,30.8c-.741-1.852-2.593-5-6.667-5s-7.407,3.148-7.407,7.963A7.75,7.75,0,0,0,131.1,41.73a7.6,7.6,0,0,0,6.481-3.519l-2.593-1.852a4.514,4.514,0,0,1-3.889,2.222,4.018,4.018,0,0,1-3.889-2.407l10.556-4.444-.37-.926ZM126.656,33.4a4.5,4.5,0,0,1,4.074-4.63,3.276,3.276,0,0,1,2.963,1.667Zm-8.7,7.593h3.519V17.841h-3.519ZM112.4,27.47a6.1,6.1,0,0,0-4.259-1.852,7.957,7.957,0,0,0-7.593,7.963,7.668,7.668,0,0,0,7.593,7.778,5.317,5.317,0,0,0,4.074-1.852h.185v1.111c0,2.963-1.667,4.63-4.259,4.63a4.114,4.114,0,0,1-3.889-2.778l-2.963,1.3a7.64,7.64,0,0,0,7.037,4.63c4.074,0,7.407-2.407,7.407-8.148V26.174H112.4v1.3ZM108.322,38.4a4.6,4.6,0,0,1-4.444-4.815,4.6,4.6,0,0,1,4.444-4.815c2.407,0,4.259,2.037,4.259,4.815S110.73,38.4,108.322,38.4Zm45.185-20.556h-8.333V40.989h3.519v-8.7h4.815a7.231,7.231,0,1,0,0-14.444Zm.185,11.111h-5V20.989h5a4.068,4.068,0,0,1,4.074,3.889,4.238,4.238,0,0,1-4.074,4.074Zm21.3-3.333c-2.593,0-5.185,1.111-6.111,3.519l3.148,1.3a3.271,3.271,0,0,1,3.148-1.667,3.48,3.48,0,0,1,3.7,2.963v.185a7.345,7.345,0,0,0-3.519-.926c-3.333,0-6.667,1.852-6.667,5.185,0,3.148,2.778,5.185,5.741,5.185a5.211,5.211,0,0,0,4.444-2.222h.185v1.852H182.4V32.1C182.026,28.026,178.878,25.619,174.989,25.619Zm-.37,12.778c-1.111,0-2.778-.556-2.778-2.037,0-1.852,2.037-2.407,3.7-2.407a7.161,7.161,0,0,1,3.148.741A4.313,4.313,0,0,1,174.619,38.4Zm19.444-12.222-3.889,10h-.185l-4.074-10h-3.7l6.111,14.074L184.8,48.026h3.518l9.445-21.852ZM162.952,40.989h3.519V17.841h-3.519Z" transform="translate(35.011 14.567)" fill="#fff"/><g transform="translate(18.519 13.236)"><path d="M10.741,7.5A3.62,3.62,0,0,0,10,10.093V51.019a3.663,3.663,0,0,0,.926,2.593l.185.185L34.074,30.833v-.37Z" transform="translate(-10 -6.847)" fill="url(#a)"/><path d="M30.493,31.541,22.9,23.948v-.556L30.493,15.8l.185.185,9.074,5.185c2.593,1.481,2.593,3.889,0,5.37Z" transform="translate(0.989 0.224)" fill="url(#b)"/><path d="M41.326,27.778,33.548,20,10.4,43.148c.926.926,2.222.926,3.889.185L41.326,27.778" transform="translate(-9.659 3.801)" fill="url(#c)"/><path d="M41.326,23.15,14.289,7.78c-1.667-.926-2.963-.741-3.889.185L33.548,30.928l7.778-7.778Z" transform="translate(-9.659 -7.127)" fill="url(#d)"/><path d="M41.141,24.1,14.289,39.285a3.028,3.028,0,0,1-3.7,0l-.185.185.185.185a3.028,3.028,0,0,0,3.7,0Z" transform="translate(-9.659 7.294)" opacity="0.2"/><path d="M10.741,42.778A3.62,3.62,0,0,1,10,40.185v.185a3.663,3.663,0,0,0,.926,2.593v-.185h-.185Zm40-20.37-9.259,5.185.185.185,9.074-5.185A3.078,3.078,0,0,0,52.593,20C52.593,20.926,51.852,21.667,50.741,22.407Z" transform="translate(-10 3.801)" opacity="0.12"/><path d="M14.63,7.986,50.741,28.541c1.111.741,1.852,1.481,1.852,2.407a3.078,3.078,0,0,0-1.852-2.593L14.63,7.8C12.037,6.319,10,7.43,10,10.393v.185C10,7.8,12.037,6.5,14.63,7.986Z" transform="translate(-10 -7.147)" fill="#fff" opacity="0.25"/></g></svg>