<svg width="40" height="40" viewBox="0 0 40 40" fill="none" xmlns="http://www.w3.org/2000/svg">
<path opacity="0.1" d="M17.9979 0.0599403C9.12206 0.98458 1.9645 7.52271 0.300968 16.2275C0.0328329 17.639 0 18.0822 0 20.0026C0 21.9175 0.038305 22.3881 0.300968 23.7778C1.01235 27.4927 2.69777 30.8138 5.33534 33.6807C8.1918 36.7829 12.2467 38.9878 16.4438 39.721C17.8282 39.9617 18.3043 40 19.9952 40C21.6314 40 22.1129 39.9672 23.4153 39.7483C27.6562 39.048 31.826 36.7829 34.7153 33.6151C37.6046 30.4472 39.29 26.8362 39.8974 22.5194C40.0342 21.5346 40.0342 18.4707 39.8974 17.4858C39.2517 12.89 37.3419 8.99995 34.1681 5.8321C32.5866 4.25091 30.934 3.06365 28.9148 2.05694C26.8682 1.03382 24.8983 0.442926 22.4303 0.10918C21.5767 -0.0111869 18.9172 -0.038542 17.9979 0.0599403Z" fill="#335FFF"/>
<path d="M14.8026 12.0857C14.6274 11.0647 13.8235 10.2241 12.8392 10.0436C12.4733 9.97659 12.195 9.98175 11.8652 10.0746C9.98419 10.5799 9.37093 12.8334 10.7469 14.1896C11.154 14.5918 11.8497 14.8909 12.3754 14.8909C13.8338 14.8909 15.0397 13.4986 14.8026 12.0857Z" fill="#335FFF"/>
<path d="M28.5777 17.593C27.882 16.8917 27.1192 16.5153 26.0783 16.3554C24.1612 16.0666 22.4348 16.7267 21.3732 18.1499L21.1052 18.5161L21.0898 17.6085L21.0795 16.6958H19.1212H17.1629V23.3479V30H19.116H21.0743L21.0898 26.1428L21.0901 26.0864C21.1104 22.3774 21.1109 22.2785 21.2186 21.8937C21.5175 20.8366 22.0586 20.2745 22.9811 20.0682C23.4706 19.9599 24.1303 19.9909 24.5425 20.1456C25.1197 20.3673 25.5578 20.9191 25.7897 21.7235C25.8918 22.066 25.8927 22.2311 25.9128 25.9405L25.9134 26.0397L25.9288 30H27.9644H30L29.9794 25.2662L29.9793 25.2458C29.9639 20.5837 29.9638 20.5316 29.8454 20.027C29.6032 18.9389 29.2579 18.2789 28.5777 17.593Z" fill="#335FFF"/>
<path d="M14.4831 30V23.3479V16.6958H12.4475H10.4119V23.3479V30H12.4475H14.4831Z" fill="#335FFF"/>
</svg>
