<?xml version="1.0" standalone="no"?>
<!DOCTYPE svg PUBLIC "-//W3C//DTD SVG 20010904//EN"
 "http://www.w3.org/TR/2001/REC-SVG-20010904/DTD/svg10.dtd">
<svg version="1.0" xmlns="http://www.w3.org/2000/svg"
 width="820.000000pt" height="820.000000pt" viewBox="0 0 820.000000 820.000000"
 preserveAspectRatio="xMidYMid meet">
<metadata>
Created by potrace 1.16, written by Peter Selinger 2001-2019
</metadata>
<g transform="translate(0.000000,820.000000) scale(0.100000,-0.100000)"
fill="#000000" stroke="none">
<path d="M3715 7735 c-1622 -169 -2930 -1364 -3234 -2955 -49 -258 -55 -339
-55 -690 0 -350 7 -436 55 -690 130 -679 438 -1286 920 -1810 522 -567 1263
-970 2030 -1104 253 -44 340 -51 649 -51 299 0 387 6 625 46 775 128 1537 542
2065 1121 528 579 836 1239 947 2028 25 180 25 740 0 920 -118 840 -467 1551
-1047 2130 -289 289 -591 506 -960 690 -374 187 -734 295 -1185 356 -156 22
-642 27 -810 9z m-934 -1535 c191 -35 347 -198 381 -396 46 -274 -188 -544
-471 -544 -102 0 -237 58 -316 136 -267 263 -148 700 217 798 64 18 118 19
189 6z m2569 -1224 c202 -31 350 -104 485 -240 132 -133 199 -261 246 -472 23
-98 23 -108 26 -1016 l4 -918 -395 0 -395 0 -3 768 c-4 738 -4 770 -24 837
-45 156 -130 263 -242 306 -80 30 -208 36 -303 15 -179 -40 -284 -149 -342
-354 -21 -75 -21 -94 -25 -824 l-3 -748 -380 0 -379 0 0 1290 0 1290 380 0
380 0 2 -177 3 -176 52 71 c206 276 541 404 913 348z m-2250 -1356 l0 -1290
-395 0 -395 0 0 1290 0 1290 395 0 395 0 0 -1290z"/>
</g>
</svg>
