<?xml version="1.0" standalone="no"?>
<!DOCTYPE svg PUBLIC "-//W3C//DTD SVG 20010904//EN"
 "http://www.w3.org/TR/2001/REC-SVG-20010904/DTD/svg10.dtd">
<svg version="1.0" xmlns="http://www.w3.org/2000/svg"
 width="820.000000pt" height="820.000000pt" viewBox="0 0 820.000000 820.000000"
 preserveAspectRatio="xMidYMid meet">
<metadata>
Created by potrace 1.16, written by Peter Selinger 2001-2019
</metadata>
<g transform="translate(0.000000,820.000000) scale(0.100000,-0.100000)"
fill="#000000" stroke="none">
<path d="M3840 7774 c-19 -2 -84 -9 -145 -15 -598 -59 -1212 -295 -1729 -663
-240 -171 -533 -449 -719 -681 -637 -793 -915 -1822 -766 -2834 94 -641 350
-1230 763 -1751 120 -152 411 -444 561 -564 576 -459 1259 -733 1990 -795 154
-14 466 -14 620 0 848 73 1628 428 2238 1019 309 298 538 613 731 1000 261
525 380 1034 380 1630 0 596 -119 1105 -380 1630 -290 583 -713 1063 -1255
1423 -472 314 -977 501 -1569 583 -109 15 -633 28 -720 18z m1497 -2034 c143
-34 300 -119 388 -209 21 -23 47 -41 56 -41 70 0 370 105 487 171 33 18 52 25
52 17 0 -22 -49 -119 -95 -188 -46 -70 -188 -213 -243 -245 -18 -11 -32 -23
-32 -27 0 -7 11 -6 120 13 85 16 239 58 303 84 31 13 57 20 57 17 0 -4 -29
-45 -65 -90 -77 -97 -211 -230 -294 -292 l-60 -45 -1 -147 c-1 -642 -281
-1306 -750 -1779 -460 -464 -1067 -709 -1755 -709 -362 0 -700 71 -1023 213
-103 45 -302 153 -302 163 0 3 42 3 93 -1 50 -4 148 -2 216 4 324 29 601 125
861 299 l115 77 -65 8 c-244 32 -462 143 -597 306 -63 76 -123 174 -152 247
l-19 50 61 -8 c72 -11 208 -3 287 16 59 14 58 16 -34 41 -75 21 -183 75 -262
131 -75 53 -188 173 -232 247 -77 129 -132 300 -132 413 0 40 2 45 18 39 116
-50 361 -109 378 -92 3 3 -24 28 -60 56 -142 111 -264 305 -307 485 -29 124
-28 284 1 403 19 74 69 205 85 221 2 3 59 -53 127 -123 147 -153 273 -260 433
-367 132 -88 386 -217 538 -273 185 -68 445 -124 655 -141 l84 -7 -9 49 c-14
87 -8 302 11 374 95 350 386 610 739 660 86 12 227 3 324 -20z"/>
</g>
</svg>
