<svg width="1094" height="1094" viewBox="0 0 1094 1094" fill="none" xmlns="http://www.w3.org/2000/svg">
<path d="M495.533 62.6666C279.267 85.2 104.867 244.533 64.3333 456.667C57.8 491.067 57 501.867 57 548.667C57 595.333 57.9333 606.8 64.3333 640.667C81.6667 731.2 122.733 812.133 187 882C256.6 957.6 355.4 1011.33 457.667 1029.2C491.4 1035.07 503 1036 544.2 1036C584.067 1036 595.8 1035.2 627.533 1029.87C730.867 1012.8 832.467 957.6 902.867 880.4C973.267 803.2 1014.33 715.2 1029.13 610C1032.47 586 1032.47 511.333 1029.13 487.333C1013.4 375.333 966.867 280.533 889.533 203.333C851 164.8 810.733 135.867 761.533 111.333C711.667 86.4 663.667 72 603.533 63.8666C582.733 60.9333 517.933 60.2666 495.533 62.6666Z" fill="black"/>
<path d="M591.377 508.526L776.769 293H732.838L571.861 480.139L443.291 293H295L489.424 575.987L295 802H338.934L508.929 604.375L644.709 802H793L591.366 508.526H591.377ZM354.764 326.077H422.245L732.857 770.427H665.377L354.764 326.077Z" fill="white"/>
</svg>
