<svg width="40" height="40" viewBox="0 0 40 40" fill="none" xmlns="http://www.w3.org/2000/svg">
<path opacity="0.1" d="M17.9979 0.0599403C9.12206 0.98458 1.9645 7.52271 0.300968 16.2275C0.0328329 17.639 0 18.0822 0 20.0026C0 21.9175 0.038305 22.3881 0.300968 23.7778C1.01235 27.4927 2.69777 30.8138 5.33534 33.6807C8.1918 36.7829 12.2467 38.9878 16.4438 39.721C17.8282 39.9617 18.3043 40 19.9952 40C21.6314 40 22.1129 39.9672 23.4153 39.7483C27.6562 39.048 31.826 36.7829 34.7153 33.6151C37.6046 30.4472 39.29 26.8362 39.8974 22.5194C40.0342 21.5346 40.0342 18.4707 39.8974 17.4858C39.2517 12.89 37.3419 8.99995 34.1681 5.8321C32.5866 4.25091 30.934 3.06365 28.9148 2.05694C26.8682 1.03382 24.8983 0.442926 22.4303 0.10918C21.5767 -0.0111869 18.9172 -0.038542 17.9979 0.0599403Z" fill="#335FFF"/>
<path d="M21.9027 18.4686L29.3482 10H27.5839L21.1189 17.3532L15.9555 10H10L17.8082 21.1193L10 30H11.7644L18.5915 22.2348L24.0445 30H30L21.9022 18.4686H21.9027ZM12.4002 11.2997H15.1102L27.5846 28.7594H24.8746L12.4002 11.2997Z" fill="#335FFF"/>
</svg>
