<svg width="48" height="48" viewBox="0 0 48 48" fill="none" xmlns="http://www.w3.org/2000/svg">
<g clip-path="url(#clip0_1401_41)">
<path fill-rule="evenodd" clip-rule="evenodd" d="M42.0119 11.9941C42.0119 10.404 41.38 8.87796 40.2547 7.75244C39.1295 6.62822 37.6022 5.99609 36.0116 5.99609H12.0081C10.4175 5.99609 8.89029 6.62822 7.76503 7.75244C6.63976 8.87796 6.00781 10.404 6.00781 11.9941V35.9887C6.00781 37.5788 6.63976 39.1049 7.76503 40.2304C8.89029 41.3546 10.4175 41.9867 12.0081 41.9867H36.0116C37.6022 41.9867 39.1295 41.3546 40.2547 40.2304C41.38 39.1049 42.0119 37.5788 42.0119 35.9887V11.9941Z" fill="#D6DFFF"/>
<path fill-rule="evenodd" clip-rule="evenodd" d="M30 4.5H25.5V0H22.5V4.5H18V0H15V4.5H12C10.0125 4.5 8.10004 5.2905 6.69754 6.69675C5.28754 8.103 4.5 10.011 4.5 12V15H0V18H4.5V22.5H0V25.5H4.5V30H0V33H4.5V36C4.5 37.989 5.28754 39.897 6.69754 41.3032C8.10004 42.7095 10.0125 43.5 12 43.5H15V48H18V43.5H22.5V48H25.5V43.5H30V48H33V43.5H36C37.9875 43.5 39.9 42.7095 41.3025 41.3032C42.7125 39.897 43.5 37.989 43.5 36V33H48V30H43.5V25.5H48V22.5H43.5V18H48V15H43.5V12C43.5 10.011 42.7125 8.103 41.3025 6.69675C39.9 5.2905 37.9875 4.5 36 4.5H33V0H30V4.5ZM40.5 12V36C40.5 37.1932 40.0275 38.3377 39.18 39.1823C38.34 40.026 37.1925 40.5 36 40.5H12C10.8075 40.5 9.66001 40.026 8.82001 39.1823C7.97251 38.3377 7.5 37.1932 7.5 36V12C7.5 10.8068 7.97251 9.66225 8.82001 8.81775C9.66001 7.974 10.8075 7.5 12 7.5H36C37.1925 7.5 38.34 7.974 39.18 8.81775C40.0275 9.66225 40.5 10.8068 40.5 12ZM30 15V33H33V15H30ZM15 20.25V33H18V27.75H22.5V33H25.5V20.25C25.5 17.3505 23.1525 15 20.25 15C17.3475 15 15 17.3505 15 20.25ZM22.5 24.75V20.25C22.5 19.0072 21.495 18 20.25 18C19.005 18 18 19.0072 18 20.25V24.75H22.5Z" fill="#335FFF"/>
</g>
<defs>
<clipPath id="clip0_1401_41">
<rect width="48" height="48" fill="white"/>
</clipPath>
</defs>
</svg>
