<svg width="48" height="48" viewBox="0 0 48 48" fill="none" xmlns="http://www.w3.org/2000/svg">
<g clip-path="url(#clip0_1715_2)">
<path d="M14.2282 31.2168H10.2474L9.3833 32.0809C6.52112 30.6011 2.94923 32.8028 2.99258 36.0396C2.99258 38.4782 4.97651 40.4621 7.41504 40.4621C10.6516 40.5051 12.8539 36.9335 11.3737 34.0713L14.2282 31.2168Z" fill="#D6DFFF"/>
<path d="M19.5755 32.4415L16.9727 35.0444C16.7087 35.3083 16.5604 35.6663 16.5604 36.0395V39.3857C11.8799 41.0374 12.9439 47.9011 17.9679 47.9997C22.9927 47.9006 24.0551 41.0366 19.3753 39.3857V36.6226L21.9781 34.0198C22.242 33.7558 22.3904 33.3979 22.3904 33.0246V31.2168H19.5755V32.4415Z" fill="#D6DFFF"/>
<path d="M40.5828 31.6172C39.8759 31.6172 39.2077 31.7847 38.6144 32.081L37.7503 31.2168H33.7695L36.624 34.0713C35.1442 36.9338 37.3459 40.5052 40.5828 40.462C46.4414 40.24 46.4403 31.8386 40.5828 31.6172Z" fill="#D6DFFF"/>
<path d="M31.4354 39.3858V36.0396C31.4354 35.6664 31.2871 35.3084 31.0231 35.0445L28.4203 32.4416V31.2168H25.6055V33.0246C25.6055 33.3979 25.7537 33.7558 26.0178 34.0198L28.6205 36.6226V39.3858C23.9401 41.0375 25.004 47.9012 30.028 47.9998C35.0527 47.9007 36.1152 41.0367 31.4354 39.3858Z" fill="#D6DFFF"/>
<path d="M19.5763 13.3271C18.6854 13.3271 17.9688 14.0492 17.9688 14.9347V16.5424H21.184V14.9347C21.1839 14.0457 20.4639 13.3271 19.5763 13.3271Z" fill="#335FFF"/>
<path d="M43.4972 16.711V14.1809C43.5277 9.34742 39.2124 5.48531 34.414 6.03778C29.9482 -2.014 18.0484 -2.01118 13.5849 6.03778C8.78643 5.4854 4.47131 9.34733 4.50172 14.1809V16.711C-2.21534 18.4946 -1.10919 28.2374 5.90916 28.4023H42.0898C49.1133 28.2353 50.2097 18.4916 43.4972 16.711ZM23.9995 20.9647C23.9302 22.8301 21.2532 22.8287 21.1846 20.9647V19.3571H17.9693V20.9647C17.9001 22.8301 15.223 22.8287 15.1544 20.9647V14.9346C15.3835 9.04585 23.7984 9.10403 23.9995 14.9346V20.9647ZM31.537 19.5573C33.4025 19.6265 33.4011 22.3036 31.537 22.3722H27.0145C25.1491 22.3029 25.1505 19.6259 27.0145 19.5573H27.8683V13.327H27.0145C25.1491 13.2578 25.1505 10.5807 27.0145 10.5121H31.537C33.4025 10.5814 33.4011 13.2584 31.537 13.327H30.6832V19.5573H31.537Z" fill="#335FFF"/>
</g>
<defs>
<clipPath id="clip0_1715_2">
<rect width="48" height="48" fill="white"/>
</clipPath>
</defs>
</svg>
