<svg xmlns="http://www.w3.org/2000/svg" xmlns:xlink="http://www.w3.org/1999/xlink" width="113" height="137" viewBox="0 0 113 137">
  <defs>
    <clipPath id="clip-path">
      <path id="Rectangle_33790" data-name="Rectangle 33790" d="M0,0H97a16,16,0,0,1,16,16V121a16,16,0,0,1-16,16H0a0,0,0,0,1,0,0V0A0,0,0,0,1,0,0Z" transform="translate(14)" fill="#f0f4ff"/>
    </clipPath>
  </defs>
  <g id="AI-ML" transform="translate(-14)" opacity="0.8" clip-path="url(#clip-path)">
    <g id="Group_47265" data-name="Group 47265" transform="translate(15.744 5.911)">
      <path id="path150" d="M-94.165-62.844A11.537,11.537,0,0,0-105.689-51.32,11.537,11.537,0,0,0-94.165-39.8,11.536,11.536,0,0,0-82.642-51.32,11.536,11.536,0,0,0-94.165-62.844Zm0,15.712a4.194,4.194,0,0,1-4.189-4.189,4.194,4.194,0,0,1,4.189-4.189,4.194,4.194,0,0,1,4.189,4.189A4.194,4.194,0,0,1-94.165-47.132Z" transform="translate(121.402 82.484)" fill="#d1dcff"/>
      <path id="path154" d="M-94.165-62.844A11.537,11.537,0,0,0-105.689-51.32,11.537,11.537,0,0,0-94.165-39.8,11.536,11.536,0,0,0-82.642-51.32,11.536,11.536,0,0,0-94.165-62.844Zm0,15.712a4.194,4.194,0,0,1-4.189-4.189,4.194,4.194,0,0,1,4.189-4.189,4.194,4.194,0,0,1,4.189,4.189A4.194,4.194,0,0,1-94.165-47.132Z" transform="translate(121.402 145.334)" fill="#d1dcff"/>
      <path id="path158" d="M-94.165-62.844A11.537,11.537,0,0,0-105.689-51.32,11.537,11.537,0,0,0-94.165-39.8,11.536,11.536,0,0,0-82.642-51.32,11.536,11.536,0,0,0-94.165-62.844Zm0,15.712a4.194,4.194,0,0,1-4.189-4.189,4.194,4.194,0,0,1,4.189-4.189,4.194,4.194,0,0,1,4.189,4.189A4.194,4.194,0,0,1-94.165-47.132Z" transform="translate(105.689 113.909)" fill="#d1dcff"/>
      <path id="path162" d="M-168.683-2.507h19.64a3.667,3.667,0,0,0,3.667-3.667,3.667,3.667,0,0,0-3.667-3.667h-18.121l-9.084-9.084a3.667,3.667,0,0,0-5.186,0,3.667,3.667,0,0,0,0,5.186l10.158,10.158A3.667,3.667,0,0,0-168.683-2.507Z" transform="translate(211.632 53.051)" fill="#d1dcff"/>
      <path id="path166" d="M-178.842-57.9a3.656,3.656,0,0,0,2.593-1.074l9.084-9.084h18.121a3.667,3.667,0,0,0,3.667-3.667,3.667,3.667,0,0,0-3.667-3.667h-19.64a3.667,3.667,0,0,0-2.593,1.074l-10.158,10.158a3.667,3.667,0,0,0,0,5.186A3.656,3.656,0,0,0-178.842-57.9Z" transform="translate(211.632 150.031)" fill="#d1dcff"/>
      <path id="path170" d="M-251.976-12.665h43.209a3.667,3.667,0,0,0,3.667-3.667A3.667,3.667,0,0,0-208.767-20h-43.209a3.667,3.667,0,0,0-3.667,3.667A3.667,3.667,0,0,0-251.976-12.665Z" transform="translate(271.356 78.921)" fill="#d1dcff"/>
      <path id="path174" d="M-103.8-127.11A23.334,23.334,0,0,0-127.11-103.8v78.562A23.334,23.334,0,0,0-103.8-1.933,23.345,23.345,0,0,0-80.745-21.824a23.345,23.345,0,0,0,19.89-23.058,23.311,23.311,0,0,0-10.769-19.64A23.311,23.311,0,0,0-60.855-84.162a23.345,23.345,0,0,0-19.89-23.058A23.345,23.345,0,0,0-103.8-127.11Zm0,117.843a15.991,15.991,0,0,1-15.973-15.973V-103.8A15.991,15.991,0,0,1-103.8-119.776,15.991,15.991,0,0,1-87.829-103.8a3.667,3.667,0,0,0,3.667,3.667A15.991,15.991,0,0,1-68.189-84.162,15.991,15.991,0,0,1-84.162-68.189a3.667,3.667,0,0,0-3.667,3.667,3.667,3.667,0,0,0,3.667,3.667A15.991,15.991,0,0,1-68.189-44.881,15.991,15.991,0,0,1-84.162-28.908a3.667,3.667,0,0,0-3.667,3.667A15.991,15.991,0,0,1-103.8-9.268Z" transform="translate(186.032 127.11)" fill="#d1dcff"/>
      <path id="path178" d="M-80.6-117.63a3.667,3.667,0,0,0,3.667-3.667,8.126,8.126,0,0,1,8.117-8.117,3.667,3.667,0,0,0,3.667-3.667,3.667,3.667,0,0,0-3.667-3.667,8.126,8.126,0,0,1-8.117-8.117,3.667,3.667,0,0,0-3.667-3.667,3.667,3.667,0,0,0-3.667,3.667A15.425,15.425,0,0,0-78.8-133.081,15.425,15.425,0,0,0-84.266-121.3,3.667,3.667,0,0,0-80.6-117.63Z" transform="translate(170.685 195.67)" fill="#d1dcff"/>
      <path id="path182" d="M-80.6-65.148A15.469,15.469,0,0,0-65.148-80.6a3.667,3.667,0,0,0-3.667-3.667A3.667,3.667,0,0,0-72.482-80.6,8.126,8.126,0,0,1-80.6-72.482a3.667,3.667,0,0,0-3.667,3.667A3.667,3.667,0,0,0-80.6-65.148Z" transform="translate(170.685 103.907)" fill="#d1dcff"/>
      <path id="path186" d="M-68.815-.881a3.667,3.667,0,0,0,3.667-3.667A15.469,15.469,0,0,0-80.6-20a3.667,3.667,0,0,0-3.667,3.667A3.667,3.667,0,0,0-80.6-12.665a8.126,8.126,0,0,1,8.117,8.117A3.667,3.667,0,0,0-68.815-.881Z" transform="translate(170.685 106.418)" fill="#d1dcff"/>
      <path id="path190" d="M-68.815-.881a3.667,3.667,0,0,0,3.667-3.667,3.667,3.667,0,0,0-3.667-3.667,8.126,8.126,0,0,1-8.117-8.117A3.667,3.667,0,0,0-80.6-20a3.667,3.667,0,0,0-3.667,3.667A15.469,15.469,0,0,0-68.815-.881Z" transform="translate(143.188 47.496)" fill="#d1dcff"/>
      <path id="path194" d="M-80.6-65.148a3.667,3.667,0,0,0,3.667-3.667,8.126,8.126,0,0,1,8.117-8.117A3.667,3.667,0,0,0-65.148-80.6a3.667,3.667,0,0,0-3.667-3.667A15.469,15.469,0,0,0-84.266-68.815,3.667,3.667,0,0,0-80.6-65.148Z" transform="translate(143.188 162.828)" fill="#d1dcff"/>
    </g>
  </g>
</svg>
