<svg xmlns="http://www.w3.org/2000/svg" xmlns:xlink="http://www.w3.org/1999/xlink" width="48" height="48" viewBox="0 0 48 48">
  <defs>
    <clipPath id="clip-AWS_Developers">
      <rect width="48" height="48"/>
    </clipPath>
  </defs>
  <g id="AWS_Developers" data-name="AWS Developers" clip-path="url(#clip-AWS_Developers)">
    <g id="aws-2" transform="translate(-1.668 8.9)">
      <path id="Path_135379" data-name="Path 135379" d="M25.642,11.525a4.83,4.83,0,0,0,.176,1.421,8.546,8.546,0,0,0,.511,1.149.694.694,0,0,1,.112.367.632.632,0,0,1-.3.479l-1.006.67a.765.765,0,0,1-.415.144.735.735,0,0,1-.479-.223,4.939,4.939,0,0,1-.575-.75c-.16-.271-.319-.575-.495-.942a5.9,5.9,0,0,1-4.694,2.2,4.374,4.374,0,0,1-3.193-1.149A4.1,4.1,0,0,1,14.1,11.828a4.11,4.11,0,0,1,1.453-3.289,5.808,5.808,0,0,1,3.911-1.245,12.64,12.64,0,0,1,1.692.128c.591.08,1.2.208,1.836.351V6.608a3.537,3.537,0,0,0-.75-2.554,3.675,3.675,0,0,0-2.6-.734,7.264,7.264,0,0,0-1.724.208,12.72,12.72,0,0,0-1.724.543,4.581,4.581,0,0,1-.559.208.979.979,0,0,1-.255.048c-.224,0-.335-.16-.335-.495V3.048a1.01,1.01,0,0,1,.112-.559,1.2,1.2,0,0,1,.447-.335,9.191,9.191,0,0,1,2.012-.718,9.679,9.679,0,0,1,2.49-.3,5.834,5.834,0,0,1,4.183,1.293A5.283,5.283,0,0,1,25.61,6.352v5.172Zm-6.482,2.427a5.174,5.174,0,0,0,1.644-.287,3.557,3.557,0,0,0,1.517-1.022,2.534,2.534,0,0,0,.543-1.022,5.731,5.731,0,0,0,.16-1.389V9.561a13.332,13.332,0,0,0-1.469-.271,12.029,12.029,0,0,0-1.5-.1,3.68,3.68,0,0,0-2.379.639,2.225,2.225,0,0,0-.782,1.836,2.06,2.06,0,0,0,2.267,2.283ZM31.98,15.675a.891.891,0,0,1-.607-.16,1.3,1.3,0,0,1-.335-.623L27.287,2.553a2.8,2.8,0,0,1-.144-.639.35.35,0,0,1,.383-.4H29.09a.885.885,0,0,1,.623.16,1.306,1.306,0,0,1,.319.623l2.682,10.568L35.2,2.3a1.12,1.12,0,0,1,.3-.623,1.1,1.1,0,0,1,.639-.16h1.277a.961.961,0,0,1,.639.16,1.076,1.076,0,0,1,.3.623l2.522,10.7L43.65,2.3a1.369,1.369,0,0,1,.319-.623,1.042,1.042,0,0,1,.623-.16h1.485a.355.355,0,0,1,.4.4,1.593,1.593,0,0,1-.032.255,2.272,2.272,0,0,1-.112.4l-3.847,12.34a1.224,1.224,0,0,1-.335.623,1.021,1.021,0,0,1-.607.16H40.17a.961.961,0,0,1-.639-.16,1.132,1.132,0,0,1-.3-.639L36.753,4.6,34.295,14.877a1.246,1.246,0,0,1-.3.639.99.99,0,0,1-.639.16Zm20.514.431a10.564,10.564,0,0,1-2.459-.287,7.263,7.263,0,0,1-1.836-.639,1.15,1.15,0,0,1-.495-.447,1.127,1.127,0,0,1-.1-.447v-.814c0-.335.128-.495.367-.495a.9.9,0,0,1,.287.048c.1.032.239.1.4.16a8.684,8.684,0,0,0,1.756.559,9.587,9.587,0,0,0,1.9.192,4.307,4.307,0,0,0,2.331-.527,1.719,1.719,0,0,0,.83-1.517,1.555,1.555,0,0,0-.431-1.118,4.006,4.006,0,0,0-1.612-.83l-2.315-.718A4.869,4.869,0,0,1,48.567,7.6a3.8,3.8,0,0,1-.8-2.315A3.553,3.553,0,0,1,48.2,3.511,4.1,4.1,0,0,1,49.349,2.2a5.067,5.067,0,0,1,1.66-.83A6.958,6.958,0,0,1,53.021,1.1a8.014,8.014,0,0,1,1.07.064c.367.048.7.112,1.038.176.319.08.623.16.91.255a3.484,3.484,0,0,1,.671.287,1.381,1.381,0,0,1,.479.4.86.86,0,0,1,.144.527v.75c0,.335-.128.511-.367.511a1.661,1.661,0,0,1-.607-.192,7.3,7.3,0,0,0-3.065-.623,4.12,4.12,0,0,0-2.123.447,1.542,1.542,0,0,0-.75,1.421A1.507,1.507,0,0,0,50.9,6.256a4.769,4.769,0,0,0,1.756.878l2.267.718A4.855,4.855,0,0,1,57.4,9.385a3.612,3.612,0,0,1,.734,2.235,4.1,4.1,0,0,1-.415,1.852,4.293,4.293,0,0,1-1.165,1.4,5.146,5.146,0,0,1-1.772.894,7.591,7.591,0,0,1-2.283.335Z" transform="translate(-10.447 0)" fill="#335fff"/>
      <g id="Group_47146" data-name="Group 47146" transform="translate(1.668 18.995)">
        <g id="Group_47147" data-name="Group 47147" transform="translate(0 0)" opacity="0.5">
          <path id="Path_135380" data-name="Path 135380" d="M45.064,123.063C39.812,126.943,32.181,129,25.62,129A35.177,35.177,0,0,1,1.881,119.95c-.495-.447-.048-1.054.543-.7a47.148,47.148,0,0,0,41.874,2.6C45.176,121.451,45.926,122.425,45.064,123.063Z" transform="translate(-1.668 -118.193)" fill="#335fff" fill-rule="evenodd"/>
          <path id="Path_135381" data-name="Path 135381" d="M252.566,115.572c-.671-.862-4.438-.415-6.146-.208-.511.064-.591-.383-.128-.718,3-2.107,7.934-1.5,8.509-.8.575.718-.16,5.651-2.969,8.014-.431.367-.846.176-.655-.3C251.816,119.978,253.237,116.418,252.566,115.572Z" transform="translate(-206.983 -113.192)" fill="#335fff" fill-rule="evenodd"/>
        </g>
      </g>
    </g>
  </g>
</svg>
