<svg width="64" height="64" viewBox="0 0 64 64" fill="none" xmlns="http://www.w3.org/2000/svg">
<g id="Next">
<rect width="64" height="64" rx="32" transform="matrix(-1 0 0 1 64 0)" fill="#335FFF" fill-opacity="0.1"/>
<path id="XMLID_222_" d="M21.3418 31.2283L33.0084 20.3195C33.464 19.8935 34.2027 19.8935 34.6584 20.3196C35.1139 20.7456 35.1139 21.4363 34.6583 21.8624L23.8166 31.9998L34.6584 42.1377C35.1139 42.5638 35.1139 43.2545 34.6583 43.6805C34.4305 43.8935 34.1319 44 33.8334 44C33.5348 44 33.2362 43.8935 33.0084 43.6804L21.3418 32.7711C21.1229 32.5665 21 32.289 21 31.9997C21 31.7104 21.1229 31.4329 21.3418 31.2283Z" fill="#335FFF"/>
</g>
</svg>
