<svg xmlns="http://www.w3.org/2000/svg" xmlns:xlink="http://www.w3.org/1999/xlink" width="154" height="137" viewBox="0 0 154 137">
  <defs>
    <clipPath id="clip-path">
      <path id="Rectangle_33793" data-name="Rectangle 33793" d="M0,0H138a16,16,0,0,1,16,16V121a16,16,0,0,1-16,16H0a0,0,0,0,1,0,0V0A0,0,0,0,1,0,0Z" transform="translate(1032 424)" fill="#f0f4ff"/>
    </clipPath>
  </defs>
  <g id="Career" transform="translate(-1032 -424)" clip-path="url(#clip-path)">
    <g id="Group_47267" data-name="Group 47267" transform="translate(443.965 -3739.485)">
      <path id="Union_5" data-name="Union 5" d="M84.5,146.08H5.608a4.28,4.28,0,0,1-4.28-4.28V115.916a4.28,4.28,0,0,1,4.28-4.28H40.776V91.95a4.28,4.28,0,0,1,4.28-4.28H80.223V58.489a4.28,4.28,0,0,1,4.28-4.28H99.947V4.28a4.28,4.28,0,0,1,8.559,0V6.573H141.8a4.28,4.28,0,0,1,3.147,7.18l-8.624,9.361,8.5,8.472A4.28,4.28,0,0,1,141.8,38.9H108.507V54.209h16.171a4.28,4.28,0,0,1,4.28,4.28V141.8a4.28,4.28,0,0,1-4.28,4.28Zm35.895-8.56V62.769H88.783V91.911c0,.013,0,.026,0,.039v45.57Zm-71.063,0H80.223V96.229H49.335Zm-39.448,0H40.776V120.2H9.887ZM131.446,30.337l-4.079-4.066a4.28,4.28,0,0,1-.126-5.931l4.8-5.207H108.507v15.2ZM.339,87.479A4.28,4.28,0,0,1,2.614,81.87,117.738,117.738,0,0,0,40.155,56.537,117.942,117.942,0,0,0,61.944,26.611l-6.855,1.443a4.28,4.28,0,0,1-1.763-8.376L68.5,16.484q.187-.042.38-.066h0l.015,0a4.258,4.258,0,0,1,2.329.363l.007,0,.006,0a4.286,4.286,0,0,1,1.023.67l0,0,.01.009.01.009h0A4.261,4.261,0,0,1,73.3,18.838l6.994,14.1a4.28,4.28,0,1,1-7.668,3.8L69.55,30.538A126.461,126.461,0,0,1,46.208,62.589,126.255,126.255,0,0,1,5.948,89.753,4.276,4.276,0,0,1,.339,87.479Z" transform="translate(587.995 4170.167)" fill="#d1dcff"/>
    </g>
  </g>
</svg>
