<svg xmlns="http://www.w3.org/2000/svg" xmlns:xlink="http://www.w3.org/1999/xlink" width="111" height="137" viewBox="0 0 111 137">
  <defs>
    <clipPath id="clip-path">
      <path id="Rectangle_33789" data-name="Rectangle 33789" d="M0,0H95a16,16,0,0,1,16,16V121a16,16,0,0,1-16,16H0a0,0,0,0,1,0,0V0A0,0,0,0,1,0,0Z" transform="translate(16)" fill="#f0f4ff"/>
    </clipPath>
  </defs>
  <g id="DevOps" transform="translate(-16)" opacity="0.8" clip-path="url(#clip-path)">
    <g id="ARROW_48" data-name="ARROW 48" transform="translate(18.071 -60.249)">
      <path id="Path_135522" data-name="Path 135522" d="M107.158,95.169H99.466l3.36-3.36A6.594,6.594,0,1,0,93.5,82.483L78.047,97.944a6.593,6.593,0,0,0,0,9.324l15.461,15.461a6.593,6.593,0,1,0,9.324-9.324l-5.049-5.049h9.376a20.395,20.395,0,1,1,0,40.79,19.178,19.178,0,0,1-13.84-5.937L57.166,105.2A32.43,32.43,0,0,0,33.771,95.169a33.581,33.581,0,1,0,0,67.162h7.692l-3.36,3.36a6.593,6.593,0,1,0,9.324,9.324l15.461-15.458a6.593,6.593,0,0,0,0-9.324L47.427,134.772A6.593,6.593,0,1,0,38.1,144.1l5.049,5.049H33.771a20.395,20.395,0,1,1,0-40.79,19.178,19.178,0,0,1,13.84,5.937l36.152,38a32.416,32.416,0,0,0,23.395,10.035,33.581,33.581,0,1,0,0-67.162Z" transform="translate(0)" fill="#d1dcff"/>
    </g>
  </g>
</svg>
