<svg width="512" height="512" viewBox="0 0 512 512" fill="none" xmlns="http://www.w3.org/2000/svg">
<g clip-path="url(#clip0_1023_21)">
<mask id="mask0_1023_21" style="mask-type:luminance" maskUnits="userSpaceOnUse" x="0" y="0" width="513" height="513">
<path d="M512.001 0H0V512.001H512.001V0Z" fill="white"/>
</mask>
<g mask="url(#mask0_1023_21)">
<path d="M509.989 463.656L474.84 361.363C491.746 327.189 500.687 289.098 500.747 250.77C500.849 184.768 475.312 122.359 428.838 75.0429C382.357 27.7179 320.418 1.07988 254.433 0.0328846C219.862 -0.522115 186.316 5.84788 154.676 18.9449C124.159 31.5779 96.7919 49.8769 73.3359 73.3329C49.8789 96.7889 31.5799 124.156 18.9479 154.673C5.85093 186.313 -0.512072 219.876 0.034928 254.43C1.07993 320.415 27.7189 382.354 75.0439 428.836C122.268 475.219 184.516 500.748 250.376 500.747C250.505 500.747 250.641 500.747 250.77 500.747C289.098 500.687 327.189 491.746 361.364 474.84L463.657 509.989C467.591 511.341 471.623 512 475.611 512C485.085 512 494.301 508.278 501.289 501.288C511.218 491.359 514.553 476.939 509.989 463.656ZM479.824 479.824C478.817 480.831 476.661 482.359 473.52 481.281L365.126 444.035C363.523 443.485 361.856 443.211 360.194 443.211C357.744 443.211 355.305 443.804 353.096 444.973C321.769 461.546 286.369 470.336 250.722 470.39C131.172 470.583 32.2799 373.48 30.3859 253.949C29.4329 193.81 52.3089 137.289 94.7999 94.7979C137.291 52.3079 193.795 29.4359 253.951 30.3869C373.481 32.2819 470.576 131.125 470.39 250.723C470.334 286.371 461.545 321.771 444.973 353.096C443.011 356.804 442.672 361.159 444.035 365.126L481.281 473.52C482.36 476.659 480.832 478.818 479.824 479.824Z" fill="#D1DCFF"/>
<path d="M247.91 362.748C239.971 362.748 232.365 369.729 232.732 377.926C233.1 386.149 239.401 393.104 247.91 393.104C255.849 393.104 263.455 386.123 263.088 377.926C262.72 369.702 256.419 362.748 247.91 362.748Z" fill="#D1DCFF"/>
<path d="M247.91 127.674C206.271 127.674 172.395 161.55 172.395 203.189C172.395 211.571 179.191 218.367 187.573 218.367C195.955 218.367 202.751 211.571 202.751 203.189C202.751 178.289 223.01 158.03 247.91 158.03C272.81 158.03 293.069 178.289 293.069 203.189C293.069 228.089 272.81 248.348 247.91 248.348C239.528 248.348 232.732 255.144 232.732 263.526V325.431C232.732 333.813 239.528 340.609 247.91 340.609C256.292 340.609 263.088 333.814 263.088 325.43V277.171C297.477 270.126 323.425 239.631 323.425 203.189C323.425 161.55 289.549 127.674 247.91 127.674Z" fill="#D1DCFF"/>
</g>
</g>
<defs>
<clipPath id="clip0_1023_21">
<rect width="512" height="512" fill="white"/>
</clipPath>
</defs>
</svg>
