<svg xmlns="http://www.w3.org/2000/svg" xmlns:xlink="http://www.w3.org/1999/xlink" width="48" height="48" viewBox="0 0 48 48">
  <defs>
    <clipPath id="clip-Fintech">
      <rect width="48" height="48"/>
    </clipPath>
  </defs>
  <g id="Fintech" clip-path="url(#clip-Fintech)">
    <g id="_017---Bank-Transfer" data-name="017---Bank-Transfer" transform="translate(-18 -20.999)">
      <path id="Rectangle" d="M36,37h4.8V51.4H36Z" transform="translate(3.6 2.6)" fill="#d6dfff"/>
      <path id="Rectangle-2" data-name="Rectangle" d="M25,37h4.8V51.4H25Z" transform="translate(1.4 2.6)" fill="#d6dfff"/>
      <path id="Rectangle-3" data-name="Rectangle" d="M47,37h4.8V51.4H47Z" transform="translate(5.8 2.6)" fill="#d6dfff"/>
      <path id="Path" d="M36.2,47H41a1.2,1.2,0,0,1,1.2,1.2V53H35V48.2A1.2,1.2,0,0,1,36.2,47Z" transform="translate(3.4 4.6)" fill="#335fff"/>
      <path id="Path-2" data-name="Path" d="M47.2,47H52a1.2,1.2,0,0,1,1.2,1.2V53H46V48.2A1.2,1.2,0,0,1,47.2,47Z" transform="translate(5.6 4.6)" fill="#335fff"/>
      <path id="Path-3" data-name="Path" d="M25.2,47H30a1.2,1.2,0,0,1,1.2,1.2V53H24V48.2A1.2,1.2,0,0,1,25.2,47Z" transform="translate(1.2 4.6)" fill="#335fff"/>
      <path id="Path-4" data-name="Path" d="M23.4,51h36a2.4,2.4,0,0,1,2.4,2.4V57H21V53.4A2.4,2.4,0,0,1,23.4,51Z" transform="translate(0.6 5.4)" fill="#d6dfff"/>
      <path id="Path-5" data-name="Path" d="M65.1,42H18.895a.9.9,0,0,1-.515-1.636L41.017,24.317a1.68,1.68,0,0,1,1.967,0L65.619,40.365A.9.9,0,0,1,65.1,42Z" transform="translate(0 0)" fill="#335fff"/>
      <path id="Path-6" data-name="Path" d="M20.4,55H63.6A2.4,2.4,0,0,1,66,57.4v1.2a1.2,1.2,0,0,1-1.2,1.2H19.2A1.2,1.2,0,0,1,18,58.6V57.4A2.4,2.4,0,0,1,20.4,55Z" transform="translate(0 6.2)" fill="#335fff"/>
    </g>
  </g>
</svg>
