<svg width="48" height="48" viewBox="0 0 48 48" fill="none" xmlns="http://www.w3.org/2000/svg">
<path d="M32.1782 10.6041C28.7249 9.88012 26.0258 7.18096 25.302 3.72761C25.213 3.30368 24.8391 3 24.4059 3C23.9726 3 23.5987 3.30368 23.5098 3.72766C22.786 7.18096 20.0868 9.88007 16.6336 10.6039C16.2096 10.6927 15.9058 11.0667 15.9058 11.4999C15.9058 11.9331 16.2095 12.3071 16.6336 12.3959C20.0868 13.1199 22.7858 15.819 23.5097 19.2723C23.5985 19.6963 23.9724 20 24.4057 20C24.8389 20 25.2129 19.6963 25.3017 19.2723C26.0257 15.819 28.7249 13.1199 32.1781 12.3961C32.6021 12.3073 32.9058 11.9334 32.9058 11.5001C32.9058 11.0669 32.6021 10.6929 32.1782 10.6041Z" fill="#335FFF"/>
<path d="M43.1179 18.1045C40.7365 17.6436 38.8753 15.9255 38.3761 13.7274C38.2799 13.3036 37.8751 13 37.4059 13C36.9368 13 36.5319 13.3035 36.4357 13.7273C35.9365 15.9255 34.0752 17.6436 31.6938 18.1043C31.2347 18.1932 30.9058 18.5669 30.9058 18.9999C30.9058 19.433 31.2347 19.8067 31.6938 19.8955C34.0751 20.3564 35.9364 22.0744 36.4355 24.2726C36.5318 24.6964 36.9366 25 37.4058 25C37.8749 25 38.2798 24.6965 38.376 24.2726C38.8753 22.0744 40.7365 20.3564 43.1179 19.8957C43.577 19.8068 43.9058 19.4331 43.9058 19.0001C43.9058 18.567 43.577 18.1933 43.1179 18.1045Z" fill="#335FFF"/>
<path d="M14.592 39.939C15.7813 39.3844 17.128 39.2666 18.3955 39.6063L26.9409 41.8964C28.5351 42.3236 30.2368 42.1747 31.7325 41.4773L46.0267 34.8119C47.5752 34.0898 48.2452 32.2491 47.5231 30.7005C46.801 29.1519 44.9603 28.482 43.4118 29.2041L36.7685 32.3019C36.7423 32.5393 36.705 32.7758 36.6553 33.0106C36.3811 34.3072 35.6171 35.4622 34.4855 36.1521C33.3795 36.8262 32.076 37.013 30.8296 36.679L24.4665 34.9741C23.7351 34.7782 23.2564 34.0474 23.4177 33.3076C23.59 32.5178 24.3841 32.0403 25.156 32.2471L31.5576 33.9623C32.5578 34.2304 33.5859 33.6367 33.854 32.6365C34.4704 30.336 33.1052 27.9713 30.8046 27.3548L21.1005 24.7546C19.5065 24.3275 17.8048 24.4763 16.3091 25.1737L9.24337 28.4685L14.592 39.939Z" fill="#D6DFFF"/>
<path d="M4.8255 28.977L0.812247 30.8484C0.108372 31.1767 -0.196128 32.0134 0.132091 32.7173L5.48081 44.1878C5.80903 44.8916 6.64575 45.1961 7.34962 44.8679L11.3629 42.9965C12.0667 42.6683 12.3712 41.8315 12.043 41.1277L6.69431 29.6573C6.36609 28.9534 5.52937 28.6488 4.8255 28.977Z" fill="#335FFF"/>
</svg>
