<svg xmlns="http://www.w3.org/2000/svg" xmlns:xlink="http://www.w3.org/1999/xlink" width="175" height="137" viewBox="0 0 175 137">
  <defs>
    <clipPath id="clip-path">
      <path id="Rectangle_33792" data-name="Rectangle 33792" d="M0,0H159a16,16,0,0,1,16,16V121a16,16,0,0,1-16,16H0a0,0,0,0,1,0,0V0A0,0,0,0,1,0,0Z" transform="translate(1507 424)" fill="#f0f4ff"/>
    </clipPath>
  </defs>
  <g id="Get_a_quote" data-name="Get a quote" transform="translate(-1507 -424)" clip-path="url(#clip-path)">
    <g id="Layer_4" transform="translate(1502.57 396.838)">
      <g id="Group_47266" data-name="Group 47266" transform="translate(4 4.31)">
        <path id="Path_135523" data-name="Path 135523" d="M152.794,4.31H79.9A20.658,20.658,0,0,0,59.269,24.948V61.595H24.622A20.652,20.652,0,0,0,4,82.223v45.823a20.651,20.651,0,0,0,20.622,20.628h3.229v14.271a9.474,9.474,0,0,0,5.759,8.8,9.625,9.625,0,0,0,10.41-1.781l22.663-21.289h30.85a20.652,20.652,0,0,0,20.628-20.628V98.327l15.264,14.3a9.583,9.583,0,0,0,16.144-6.989V91.407H152.8A20.656,20.656,0,0,0,173.43,70.771V24.948A20.659,20.659,0,0,0,152.794,4.31ZM97.533,138.258H64.623a5.218,5.218,0,0,0-3.566,1.413l-22.79,21.412V143.466a5.207,5.207,0,0,0-5.208-5.208H24.622a10.218,10.218,0,0,1-10.206-10.212V82.223A10.218,10.218,0,0,1,24.622,72.011h34.71A20.645,20.645,0,0,0,79.9,91.409h27.839v36.637A10.219,10.219,0,0,1,97.533,138.258Zm65.481-67.487a10.233,10.233,0,0,1-10.22,10.222H144.36a5.207,5.207,0,0,0-5.208,5.208v17.526L116.544,82.51l-.108-.1-.013.015L116.4,82.4a5.2,5.2,0,0,0-3.562-1.4H79.9a10.234,10.234,0,0,1-10.22-10.222v-.01h.039l-.039-45.812A10.233,10.233,0,0,1,79.9,14.73h72.89a10.234,10.234,0,0,1,10.22,10.222Z" transform="translate(-4 -4.31)" fill="#d1dcff"/>
        <path id="Path_135524" data-name="Path 135524" d="M95.7,18.648H54.037a5.208,5.208,0,0,0,0,10.416H95.7a5.208,5.208,0,1,0,0-10.416Z" transform="translate(37.482 8.958)" fill="#d1dcff"/>
        <path id="Path_135525" data-name="Path 135525" d="M95.7,29.467H54.037a5.208,5.208,0,1,0,0,10.416H95.7a5.208,5.208,0,1,0,0-10.416Z" transform="translate(37.482 18.969)" fill="#d1dcff"/>
        <path id="Path_135526" data-name="Path 135526" d="M24.4,54.231a5.474,5.474,0,0,0-1.665,1.038,5.769,5.769,0,0,0-1.563,3.752,5.286,5.286,0,0,0,1.563,3.641,5.073,5.073,0,0,0,3.645,1.567,6.861,6.861,0,0,0,2.083-.418,4.45,4.45,0,0,0,1.665-1.149A5.3,5.3,0,0,0,31.7,59.021a5.765,5.765,0,0,0-1.563-3.752A5.455,5.455,0,0,0,24.4,54.231Z" transform="translate(11.893 41.512)" fill="#d1dcff"/>
        <path id="Path_135527" data-name="Path 135527" d="M39.234,54.231a5.451,5.451,0,0,0-5.728,1.038,5.654,5.654,0,0,0-1.457,3.752,5.193,5.193,0,0,0,1.457,3.641,4.465,4.465,0,0,0,1.665,1.149,7.556,7.556,0,0,0,2.083.418A5.074,5.074,0,0,0,40.9,62.662a5.3,5.3,0,0,0,1.563-3.641A5.765,5.765,0,0,0,40.9,55.269a5.52,5.52,0,0,0-1.667-1.038Z" transform="translate(21.955 41.512)" fill="#d1dcff"/>
        <path id="Path_135528" data-name="Path 135528" d="M50.105,54.229a5.392,5.392,0,0,0-4.062,0,5.474,5.474,0,0,0-1.665,1.038,5.769,5.769,0,0,0-1.563,3.752,5.286,5.286,0,0,0,1.563,3.641,5.074,5.074,0,0,0,3.647,1.567,6.873,6.873,0,0,0,2.083-.418,4.471,4.471,0,0,0,1.667-1.149,5.193,5.193,0,0,0,1.457-3.641,5.66,5.66,0,0,0-1.457-3.752A5.553,5.553,0,0,0,50.105,54.229Z" transform="translate(31.916 41.515)" fill="#d1dcff"/>
        <path id="Path_135529" data-name="Path 135529" d="M21,31.769H31.419a5.208,5.208,0,0,0,0-10.416H21a5.208,5.208,0,0,0,0,10.416Z" transform="translate(6.914 11.461)" fill="#d1dcff"/>
        <path id="Path_135530" data-name="Path 135530" d="M85.515,70.04H75.1a5.208,5.208,0,0,0,0,10.416H85.515a5.208,5.208,0,1,0,0-10.416Z" transform="translate(56.972 56.513)" fill="#d1dcff"/>
      </g>
    </g>
  </g>
</svg>
