<svg width="48" height="48" viewBox="0 0 48 48" fill="none" xmlns="http://www.w3.org/2000/svg">
<g clip-path="url(#clip0_1715_26)">
<path d="M44.1972 26.5082L41.6782 22.8464C40.9366 21.7673 40.6319 20.4606 40.8213 19.1659C41.35 15.5378 40.7294 12.1779 38.9763 9.17888C37.4191 6.51272 34.9882 4.24772 31.9479 2.62772C24.7398 -1.21359 14.8071 -1.07456 8.56285 4.58606C2.91254 9.70566 1.65254 18.7064 5.63223 25.521C6.81123 27.5301 9.26317 31.3611 9.26317 37.4036V46.5938C9.26317 47.37 9.89223 48 10.6694 48H27.6607C28.3488 48 28.9357 47.5022 29.0482 46.8234L29.5535 43.7729C29.6733 43.048 30.113 42.7899 30.9382 42.6592C32.4268 42.4249 34.5615 42.8743 35.845 42.9826C38.7727 43.2346 41.1879 40.733 40.84 37.8208L40.1547 32.0609L43.1857 30.5084C44.6563 29.7555 45.1369 27.8752 44.1972 26.5082ZM30.8735 17.3349C31.6507 17.3349 32.2797 17.9649 32.2797 18.7412C32.2797 19.5184 31.6507 20.1474 30.8735 20.1474H28.9694V21.5537C28.9694 22.3309 28.3394 22.9599 27.5632 22.9599H26.1569V24.8649C26.1569 25.6412 25.5269 26.2712 24.7507 26.2712C23.9744 26.2712 23.3444 25.6412 23.3444 24.8649V22.9599H20.5319V24.8649C20.5319 25.6412 19.9019 26.2712 19.1257 26.2712C18.3494 26.2712 17.7194 25.6412 17.7194 24.8649V22.9599H16.3132C15.5369 22.9599 14.9069 22.3309 14.9069 21.5537V20.1474H13.0029C12.2257 20.1474 11.5966 19.5184 11.5966 18.7412C11.5966 17.9649 12.2257 17.3349 13.0029 17.3349H14.9069V14.5225H13.0029C12.2257 14.5225 11.5966 13.8935 11.5966 13.1163C11.5966 12.34 12.2257 11.71 13.0029 11.71H14.9069V10.3038C14.9069 9.52753 15.5369 8.89753 16.3132 8.89753H17.7194V6.99356C17.7194 6.21731 18.3494 5.58731 19.1257 5.58731C19.9019 5.58731 20.5319 6.21731 20.5319 6.99356V8.89753H23.3444V6.99356C23.3444 6.21731 23.9744 5.58731 24.7507 5.58731C25.5269 5.58731 26.1569 6.21731 26.1569 6.99356V8.89753H27.5632C28.3394 8.89753 28.9694 9.52753 28.9694 10.3038V11.71H30.8735C31.6507 11.71 32.2797 12.34 32.2797 13.1163C32.2797 13.8935 31.6507 14.5225 30.8735 14.5225H28.9694V17.3349H30.8735Z" fill="#335FFF"/>
<path d="M17.7188 11.71V20.1473H26.1562V11.71H17.7188ZM21.9375 17.3349C21.1612 17.3349 20.5312 16.7058 20.5312 15.9286C20.5312 15.1524 21.1612 14.5224 21.9375 14.5224C22.7137 14.5224 23.3437 15.1524 23.3437 15.9286C23.3437 16.7058 22.7137 17.3349 21.9375 17.3349Z" fill="#D6DFFF"/>
</g>
<defs>
<clipPath id="clip0_1715_26">
<rect width="48" height="48" fill="white"/>
</clipPath>
</defs>
</svg>
