<svg xmlns="http://www.w3.org/2000/svg" xmlns:xlink="http://www.w3.org/1999/xlink" width="48" height="48" viewBox="0 0 48 48">
  <defs>
    <clipPath id="clip-Laravel_Developers">
      <rect width="48" height="48"/>
    </clipPath>
  </defs>
  <g id="Laravel_Developers" data-name="Laravel Developers" clip-path="url(#clip-Laravel_Developers)">
    <path id="laravel-2" d="M46.6,10.859a.76.76,0,0,1,.026.2v10.3a.751.751,0,0,1-.378.652L37.6,26.989v9.868a.753.753,0,0,1-.376.652L19.175,47.9a.808.808,0,0,1-.131.054c-.017.006-.033.016-.051.021a.756.756,0,0,1-.385,0c-.021-.006-.039-.017-.059-.024a.781.781,0,0,1-.124-.051L.377,37.509A.752.752,0,0,1,0,36.857V5.948a.768.768,0,0,1,.026-.2c.006-.022.019-.041.026-.063A.74.74,0,0,1,.1,5.571.7.7,0,0,1,.152,5.5a.765.765,0,0,1,.067-.087.733.733,0,0,1,.074-.056A.612.612,0,0,1,.376,5.3h0L9.4.1a.753.753,0,0,1,.751,0l9.024,5.2h0a.921.921,0,0,1,.083.064.889.889,0,0,1,.073.056A.879.879,0,0,1,19.4,5.5a.693.693,0,0,1,.051.067.784.784,0,0,1,.049.116c.008.022.021.041.026.064a.76.76,0,0,1,.026.2V25.253l7.52-4.33V11.054a.759.759,0,0,1,.026-.2c.007-.023.019-.042.026-.064a.846.846,0,0,1,.049-.116c.014-.024.035-.044.051-.067a.773.773,0,0,1,.068-.087.721.721,0,0,1,.073-.056.758.758,0,0,1,.083-.065h0l9.025-5.2a.752.752,0,0,1,.751,0l9.024,5.2a.83.83,0,0,1,.085.064c.023.019.051.036.072.056a.878.878,0,0,1,.068.088.567.567,0,0,1,.051.067.744.744,0,0,1,.049.116.537.537,0,0,1,.026.064ZM45.122,20.924V12.356l-3.158,1.818L37.6,16.686v8.568l7.522-4.33ZM36.1,36.422V27.849L31.807,30.3,19.553,37.294v8.654ZM1.5,7.248V36.422l16.544,9.525V37.295L9.405,32.4l0,0,0,0a35.645,35.645,0,0,0-.152-.116l0,0a.715.715,0,0,1-.062-.079.8.8,0,0,1-.056-.073v0a.6.6,0,0,1-.039-.094.556.556,0,0,1-.036-.085h0a.719.719,0,0,1-.015-.11.652.652,0,0,1-.011-.085V11.578L4.662,9.065,1.5,7.249ZM9.777,1.62,2.258,5.948l7.517,4.328,7.518-4.329L9.775,1.62Zm3.91,27.01,4.362-2.511V7.248L14.891,9.066l-4.363,2.512V30.449ZM36.85,6.727l-7.518,4.328,7.518,4.328,7.517-4.329ZM36.1,16.686l-4.363-2.512-3.158-1.818v8.568l4.362,2.511L36.1,25.253ZM18.8,35.993l11.027-6.3,5.512-3.146-7.512-4.325-8.649,4.98-7.883,4.538Z" transform="translate(1 0)" fill="#335fff"/>
  </g>
</svg>
