<svg xmlns="http://www.w3.org/2000/svg" xmlns:xlink="http://www.w3.org/1999/xlink" width="48" height="48" viewBox="0 0 48 48">
  <defs>
    <clipPath id="clip-Market_Place">
      <rect width="48" height="48"/>
    </clipPath>
  </defs>
  <g id="Market_Place" data-name="Market Place" clip-path="url(#clip-Market_Place)">
    <g id="Group_47284" data-name="Group 47284" transform="translate(-725.278 -159)">
      <g id="Group_47188" data-name="Group 47188" transform="translate(729.397 161)">
        <path id="Path_135426" data-name="Path 135426" d="M43.882,21.945A21.941,21.941,0,1,1,21.941,0,21.941,21.941,0,0,1,43.882,21.945Zm0,0" transform="translate(0 -0.004)" fill="#c1ceff"/>
        <path id="Path_135433" data-name="Path 135433" d="M32.861,23.748H43.8c.036-.52.078-1.038.078-1.567s-.042-1.048-.078-1.567H32.858a44.053,44.053,0,0,0-.976-7.836h9.861a21.768,21.768,0,0,0-1.81-3.134H31.063A40.856,40.856,0,0,0,27.294.924,22,22,0,0,0,23.13.3l.627.8A36.573,36.573,0,0,1,27.8,9.643H16.1A37.034,37.034,0,0,1,20.184.986L20.55.31a21.863,21.863,0,0,0-3.978.627A40.293,40.293,0,0,0,12.8,9.643H3.949a21.769,21.769,0,0,0-1.81,3.134h9.842a43.835,43.835,0,0,0-.97,7.836H.078C.042,21.133,0,21.65,0,22.18s.042,1.047.078,1.567H11.011a43.924,43.924,0,0,0,.972,7.836H2.139a21.851,21.851,0,0,0,1.81,3.134H12.8a40.4,40.4,0,0,0,3.774,8.713,21.659,21.659,0,0,0,3.949.618l-.314-.627c-.027-.051-.057-.1-.088-.157a36.6,36.6,0,0,1-4.04-8.547H27.8a36.613,36.613,0,0,1-3.953,8.412l-.94.94a21.869,21.869,0,0,0,4.4-.641,40.265,40.265,0,0,0,3.771-8.711h8.85a21.85,21.85,0,0,0,1.81-3.134H31.9a43.843,43.843,0,0,0,.963-7.836ZM15.21,12.777H28.688a40.437,40.437,0,0,1,1.065,7.836H14.139a40.5,40.5,0,0,1,1.071-7.836ZM28.688,31.584H15.2a40.566,40.566,0,0,1-1.061-7.836H29.758a40.581,40.581,0,0,1-1.078,7.836Zm0,0" transform="translate(0 -0.24)" fill="#fff"/>
      </g>
      <g id="shopping" transform="translate(725.278 170.085)">
        <path id="Path_135410" data-name="Path 135410" d="M247.585,255.379H226.4l-2.7,25.975h26.581Zm0,0" transform="translate(-223.703 -246.172)" fill="#335fff"/>
        <path id="Path_135412" data-name="Path 135412" d="M302.88,177.025a.794.794,0,0,1-.794-.794v-5.238a4.921,4.921,0,1,0-9.842,0v5.238a.794.794,0,1,1-1.587,0v-5.238a6.509,6.509,0,1,1,13.018,0v5.238A.794.794,0,0,1,302.88,177.025Zm0,0" transform="translate(-283.874 -164.484)" fill="#335fff"/>
      </g>
    </g>
  </g>
</svg>
