<svg xmlns="http://www.w3.org/2000/svg" xmlns:xlink="http://www.w3.org/1999/xlink" width="48" height="48" viewBox="0 0 48 48">
  <defs>
    <clipPath id="clip-Mobile_App">
      <rect width="48" height="48"/>
    </clipPath>
  </defs>
  <g id="Mobile_App" data-name="Mobile App" clip-path="url(#clip-Mobile_App)">
    <g id="Group_47283" data-name="Group 47283" transform="translate(-715 -215)">
      <g id="Group_47105" data-name="Group 47105" transform="translate(723 215)">
        <path id="Path_135334" data-name="Path 135334" d="M27.8,8.37V3.764A2.621,2.621,0,0,0,25.352,1H2.443A2.621,2.621,0,0,0,0,3.764V8.37Zm-16.341-4.3h4.886a.873.873,0,0,1,.814.921.873.873,0,0,1-.814.921H11.455a.873.873,0,0,1-.814-.921A.873.873,0,0,1,11.455,4.071Z" transform="translate(0 -1)" fill="#335fff"/>
        <path id="Path_135336" data-name="Path 135336" d="M27.8,1V5.5a2.585,2.585,0,0,1-2.443,2.7H2.443A2.585,2.585,0,0,1,0,5.5V1ZM11.455,5.2h4.886a.861.861,0,0,0,.814-.9.861.861,0,0,0-.814-.9H11.455a.861.861,0,0,0-.814.9A.861.861,0,0,0,11.455,5.2Z" transform="translate(0 39.793)" fill="#335fff"/>
        <path id="Subtraction_8" data-name="Subtraction 8" d="M0,0H27.8V29.985H0Z" transform="translate(0 9.007)" fill="#335fff" opacity="0.2"/>
      </g>
      <path id="Path_135342" data-name="Path 135342" d="M85.527-167.57a1.483,1.483,0,0,1,.225,2.059,1.42,1.42,0,0,1-2.021.229l-7.188-5.859a1.483,1.483,0,0,1,0-2.288l7.188-5.859a1.42,1.42,0,0,1,2.021.229A1.483,1.483,0,0,1,85.527-177l-5.784,4.715Zm13.361-14.391-8.625,20.506a1.428,1.428,0,0,1-1.888.769,1.475,1.475,0,0,1-.755-1.923l8.625-20.506a1.428,1.428,0,0,1,1.888-.769A1.475,1.475,0,0,1,98.888-181.962Zm11.077,10.82-7.188,5.859a1.419,1.419,0,0,1-2.02-.229,1.483,1.483,0,0,1,.225-2.059l5.784-4.715L100.981-177a1.483,1.483,0,0,1-.225-2.059,1.419,1.419,0,0,1,2.02-.229l7.188,5.859A1.483,1.483,0,0,1,109.965-171.142Z" transform="translate(649.996 411.788)" fill="#335fff"/>
    </g>
  </g>
</svg>
