<svg xmlns="http://www.w3.org/2000/svg" xmlns:xlink="http://www.w3.org/1999/xlink" width="48" height="48" viewBox="0 0 48 48">
  <defs>
    <clipPath id="clip-Node_JS_Developers">
      <rect width="48" height="48"/>
    </clipPath>
  </defs>
  <g id="Node_JS_Developers" data-name="Node JS Developers" clip-path="url(#clip-Node_JS_Developers)">
    <g id="next-js" transform="translate(-0.5 -0.324)">
      <path id="Path_135370" data-name="Path 135370" d="M22.925.337c-.1.009-.432.042-.727.066A24.054,24.054,0,0,0,4.952,10.349,23.756,23.756,0,0,0,.716,20.834a18.369,18.369,0,0,0-.216,3.5,18.369,18.369,0,0,0,.216,3.5,24.1,24.1,0,0,0,16.415,19.39A25.371,25.371,0,0,0,22.2,48.265a44.2,44.2,0,0,0,4.6,0,24.228,24.228,0,0,0,8.646-2.529c.413-.211.493-.267.436-.314-.038-.028-1.8-2.388-3.908-5.24L28.132,35l-4.809-7.117c-2.646-3.913-4.823-7.112-4.842-7.112s-.038,3.157-.047,7.018c-.014,6.76-.019,7.032-.1,7.192a.853.853,0,0,1-.413.427c-.15.075-.281.089-.99.089h-.812l-.216-.136a.877.877,0,0,1-.314-.342l-.1-.211L15.5,25.4l.014-9.411.145-.183a1.287,1.287,0,0,1,.347-.286c.192-.094.267-.1,1.079-.1.957,0,1.117.038,1.365.31.07.075,2.674,4,5.789,8.721s7.375,11.175,9.467,14.342l3.8,5.756.192-.127a24.634,24.634,0,0,0,4.931-4.325,23.89,23.89,0,0,0,5.648-12.268,18.37,18.37,0,0,0,.216-3.5,18.37,18.37,0,0,0-.216-3.5A24.1,24.1,0,0,0,31.862,1.445a25.194,25.194,0,0,0-5-1.046c-.45-.047-3.551-.1-3.941-.061Zm9.824,14.515a.947.947,0,0,1,.474.554c.038.122.047,2.73.038,8.609l-.014,8.435-1.487-2.28-1.492-2.28V21.758c0-3.964.019-6.193.047-6.3a.957.957,0,0,1,.464-.591c.192-.1.263-.108,1-.108.694,0,.816.009.971.094Z" transform="translate(0)" fill="#335fff"/>
      <path id="Path_135371" data-name="Path 135371" d="M758.327,943.1c-.164.1-.216.174-.07.094.1-.061.272-.188.244-.192A.968.968,0,0,0,758.327,943.1Zm-.324.211c-.084.066-.084.07.019.019a.286.286,0,0,0,.1-.07C758.125,943.221,758.1,943.23,758,943.31Zm-.234.141c-.084.066-.084.07.019.019a.287.287,0,0,0,.1-.07C757.89,943.361,757.867,943.371,757.768,943.45Zm-.235.141c-.084.066-.084.07.019.019a.289.289,0,0,0,.1-.07C757.656,943.5,757.632,943.511,757.534,943.591Zm-.356.188c-.178.094-.169.131.009.042a.484.484,0,0,0,.141-.094C757.327,943.694,757.323,943.7,757.177,943.779Z" transform="translate(-721.055 -898.451)" fill="#335fff"/>
    </g>
  </g>
</svg>
