<svg xmlns="http://www.w3.org/2000/svg" xmlns:xlink="http://www.w3.org/1999/xlink" width="48" height="48" viewBox="0 0 48 48">
  <defs>
    <clipPath id="clip-Other">
      <rect width="48" height="48"/>
    </clipPath>
  </defs>
  <g id="Other" clip-path="url(#clip-Other)">
    <g id="settings" transform="translate(0 -0.114)">
      <g id="Group_47120" data-name="Group 47120" transform="translate(0 13.661)">
        <g id="Group_47119" data-name="Group 47119">
          <path id="Path_135351" data-name="Path 135351" d="M31.563,34.3a14.367,14.367,0,0,0-.091-3.474L34.1,29.657a17.327,17.327,0,0,0-3.176-7.133L28.294,23.7a14.415,14.415,0,0,0-2.52-2.391l1.032-2.688a17.405,17.405,0,0,0-7.289-2.8l-1.033,2.691a14.367,14.367,0,0,0-3.474.091l-1.166-2.618a17.392,17.392,0,0,0-7.126,3.194l1.158,2.6A14.391,14.391,0,0,0,5.485,24.3L2.8,23.267A17.1,17.1,0,0,0,.98,26.75a17.6,17.6,0,0,0-.98,3.8l2.688,1.032a14.367,14.367,0,0,0,.091,3.474L.149,36.229a17.314,17.314,0,0,0,3.177,7.133L5.957,42.19a14.363,14.363,0,0,0,2.521,2.392l-1.032,2.69a17.405,17.405,0,0,0,7.289,2.8l1.033-2.691a14.411,14.411,0,0,0,3.474-.092l1.166,2.617a17.39,17.39,0,0,0,7.127-3.194l-1.159-2.6a14.392,14.392,0,0,0,2.392-2.52l2.68,1.028a17.111,17.111,0,0,0,1.823-3.482,17.41,17.41,0,0,0,.983-3.8Zm-7.146,1.438a7.809,7.809,0,1,1-4.494-10.088A7.809,7.809,0,0,1,24.417,35.741Z" transform="translate(0 -15.816)" fill="#335fff"/>
        </g>
      </g>
      <g id="Group_47122" data-name="Group 47122" transform="translate(27.525 0.114)">
        <g id="Group_47121" data-name="Group 47121">
          <path id="Path_135352" data-name="Path 135352" d="M50.506,10.71a8.4,8.4,0,0,0-.145-1.526l2.016-1.165a10.583,10.583,0,0,0-2.784-4.832L47.572,4.354A8.308,8.308,0,0,0,44.929,2.83V.5a10.318,10.318,0,0,0-5.577,0V2.831A8.333,8.333,0,0,0,36.71,4.355L34.687,3.187A10.606,10.606,0,0,0,31.9,8.02L33.92,9.184a8.061,8.061,0,0,0,0,3.053L31.9,13.4a10.6,10.6,0,0,0,2.784,4.832l2.021-1.167a8.317,8.317,0,0,0,2.643,1.524v2.333a10.318,10.318,0,0,0,5.577,0V18.59a8.324,8.324,0,0,0,2.643-1.524l2.021,1.167A10.583,10.583,0,0,0,52.377,13.4L50.36,12.237A8.337,8.337,0,0,0,50.506,10.71Zm-8.365,3.9a3.9,3.9,0,1,1,3.9-3.9A3.905,3.905,0,0,1,42.142,14.615Z" transform="translate(-31.903 -0.114)" fill="#335fff" opacity="0.4"/>
        </g>
      </g>
    </g>
  </g>
</svg>
