<svg xmlns="http://www.w3.org/2000/svg" xmlns:xlink="http://www.w3.org/1999/xlink" width="48" height="48" viewBox="0 0 48 48">
  <defs>
    <clipPath id="clip-Productivity">
      <rect width="48" height="48"/>
    </clipPath>
  </defs>
  <g id="Productivity" clip-path="url(#clip-Productivity)">
    <g id="time-management">
      <path id="Path_135458" data-name="Path 135458" d="M24,0l4.5,21.382L24,48H19.734a1.405,1.405,0,0,1-1.372-1.1l-1.088-4.891q-.636-.238-1.252-.518l-4.227,2.69a1.406,1.406,0,0,1-1.749-.192L4.013,37.955a1.406,1.406,0,0,1-.192-1.749l2.69-4.228q-.28-.615-.518-1.252L1.1,29.638A1.405,1.405,0,0,1,0,28.266V19.734a1.405,1.405,0,0,1,1.1-1.372l4.891-1.088q.238-.636.518-1.252l-2.69-4.227a1.406,1.406,0,0,1,.192-1.749l6.032-6.032a1.406,1.406,0,0,1,1.749-.192l4.228,2.69q.615-.28,1.252-.518L18.362,1.1A1.405,1.405,0,0,1,19.734,0Z" fill="#335fff"/>
      <path id="Path_135459" data-name="Path 135459" d="M280,19.734v8.531a1.405,1.405,0,0,1-1.1,1.372l-4.891,1.088q-.238.636-.518,1.252l2.69,4.228a1.406,1.406,0,0,1-.192,1.749l-6.032,6.032a1.407,1.407,0,0,1-1.749.192l-4.227-2.69q-.616.28-1.252.518L261.638,46.9a1.405,1.405,0,0,1-1.372,1.1H256V0h4.266a1.405,1.405,0,0,1,1.372,1.1l1.088,4.891q.636.238,1.252.518l4.228-2.69a1.406,1.406,0,0,1,1.749.192l6.032,6.032a1.406,1.406,0,0,1,.192,1.749l-2.69,4.227q.28.616.518,1.252l4.891,1.088A1.405,1.405,0,0,1,280,19.734Z" transform="translate(-232)" fill="#335fff"/>
      <g id="Group_47226" data-name="Group 47226" transform="translate(11.626 11.626)">
        <path id="Path_135460" data-name="Path 135460" d="M136.384,124.01l4.067,11.945-4.067,12.8a12.374,12.374,0,1,1,0-24.748Z" transform="translate(-124.01 -124.01)" fill="#fff"/>
      </g>
      <path id="Path_135461" data-name="Path 135461" d="M268.374,136.384A12.388,12.388,0,0,1,256,148.758V124.01A12.388,12.388,0,0,1,268.374,136.384Z" transform="translate(-232 -112.384)" fill="#fff"/>
      <path id="Path_135468" data-name="Path 135468" d="M1767.832-2631.466l-.938-.623v-2.973a.938.938,0,0,1,.938-.937.937.937,0,0,1,.937.937v2.973Z" transform="translate(-1743.832 2652.913)" fill="#335fff"/>
      <path id="Path_135463" data-name="Path 135463" d="M261.082,261.082a1.413,1.413,0,0,1-1.988,0l-3.7-3.7.594-1.584,1.395-.4,3.7,3.7A1.413,1.413,0,0,1,261.082,261.082Z" transform="translate(-231.447 -231.447)" fill="#335fff"/>
      <path id="Path_135464" data-name="Path 135464" d="M124.766,111.19a13.576,13.576,0,1,0,0,27.152l.8-1.993-.8-3.426a1.407,1.407,0,0,0-1.406,1.406v1.109a10.716,10.716,0,0,1-5.142-2.135l.77-.77A1.406,1.406,0,0,0,117,130.545l-.77.77a10.716,10.716,0,0,1-2.135-5.142H115.2a1.406,1.406,0,0,0,0-2.812h-1.109a10.716,10.716,0,0,1,2.135-5.142l.77.77A1.406,1.406,0,0,0,118.987,117l-.77-.77A10.709,10.709,0,0,1,124.766,114l1.59-1.138Z" transform="translate(-100.766 -100.766)" fill="#a3b7ff"/>
      <path id="Path_135465" data-name="Path 135465" d="M269.576,124.766A13.591,13.591,0,0,1,256,138.342v-5.42a1.407,1.407,0,0,1,1.406,1.406v1.109a10.787,10.787,0,0,0,9.265-9.265h-1.109a1.406,1.406,0,1,1,0-2.812h1.109a10.716,10.716,0,0,0-2.135-5.142l-.77.77A1.406,1.406,0,1,1,261.779,117l.77-.77A10.709,10.709,0,0,0,256,114V111.19A13.591,13.591,0,0,1,269.576,124.766Z" transform="translate(-232 -100.766)" fill="#a3b7ff"/>
      <path id="Path_135467" data-name="Path 135467" d="M1768.89-2632.009a2,2,0,0,1-2-2,2,2,0,0,1,2-2,2,2,0,0,1,2,2A2,2,0,0,1,1768.89-2632.009Z" transform="translate(-1744.89 2658.004)" fill="#a3b7ff"/>
    </g>
  </g>
</svg>
