<svg xmlns="http://www.w3.org/2000/svg" xmlns:xlink="http://www.w3.org/1999/xlink" width="48" height="48" viewBox="0 0 48 48">
  <defs>
    <clipPath id="clip-Proptech">
      <rect width="48" height="48"/>
    </clipPath>
  </defs>
  <g id="Proptech" clip-path="url(#clip-Proptech)">
    <g id="Group_47285" data-name="Group 47285" transform="translate(-761.67 -161)">
      <g id="_x34_7" transform="translate(761.67 161)">
        <path id="Path_135498" data-name="Path 135498" d="M48.369,20.239l-6.843-5.767V6.283A1.53,1.53,0,0,0,40,4.752h-4.85a1.531,1.531,0,0,0-1.531,1.531V7.8l-7.28-6.134a1.961,1.961,0,0,0-2.69,0L1.631,20.239a1.973,1.973,0,0,0,1.345,3.422H6.16V46.625A1.984,1.984,0,0,0,8.138,48.6H41.862a1.984,1.984,0,0,0,1.978-1.978V23.661h3.184a1.977,1.977,0,0,0,1.345-3.422ZM26.494,41.412a2.149,2.149,0,0,1-3.461,0c-2.729-3.758-7.753-11.156-7.753-14.953a9.494,9.494,0,0,1,18.988,0c0,3.8-5.024,11.2-7.773,14.953Z" transform="translate(-1 -1.132)" fill="#335fff"/>
        <circle id="Ellipse_1004" data-name="Ellipse 1004" cx="3.956" cy="3.956" r="3.956" transform="translate(19.816 21.743)" fill="#335fff"/>
      </g>
    </g>
  </g>
</svg>
