<svg xmlns="http://www.w3.org/2000/svg" xmlns:xlink="http://www.w3.org/1999/xlink" width="48" height="48" viewBox="0 0 48 48">
  <defs>
    <clipPath id="clip-React_JS_Developers">
      <rect width="48" height="48"/>
    </clipPath>
  </defs>
  <g id="React_JS_Developers" data-name="React JS Developers" clip-path="url(#clip-React_JS_Developers)">
    <g id="atom" transform="translate(-0.3 2.2)">
      <path id="Path_135369" data-name="Path 135369" d="M3827.068-2485.966a4.472,4.472,0,0,1-4.468-4.466,4.473,4.473,0,0,1,4.468-4.468,4.472,4.472,0,0,1,4.466,4.468A4.471,4.471,0,0,1,3827.068-2485.966Z" transform="translate(-3802.767 2512.608)" fill="#849fff"/>
      <path id="Path_135368" data-name="Path 135368" d="M3836.924-2452.013h0v-.131a4.573,4.573,0,0,1-2.32-.593c-2.383-1.375-3.231-4.9-2.391-9.918.136-.812.317-1.667.538-2.54l.1-.385-.381-.108c-.855-.242-1.686-.512-2.468-.8-4.769-1.782-7.395-4.278-7.395-7.029s2.626-5.247,7.395-7.029c.764-.286,1.594-.557,2.468-.8l.381-.108-.1-.385c-.22-.871-.4-1.725-.538-2.538-.841-5.021.008-8.544,2.391-9.92a4.584,4.584,0,0,1,2.323-.593c2.118,0,4.7,1.2,7.462,3.482.633.522,1.283,1.106,1.93,1.735l.285.277.285-.277c.647-.629,1.3-1.213,1.93-1.735,2.762-2.278,5.343-3.482,7.462-3.482a4.575,4.575,0,0,1,2.322.593c2.382,1.376,3.231,4.9,2.391,9.92-.135.807-.315,1.661-.537,2.538l-.1.385.382.108c.873.247,1.7.518,2.468.8,4.768,1.782,7.393,4.279,7.393,7.029s-2.625,5.248-7.393,7.029c-.779.291-1.609.561-2.468.8l-.382.108.1.385c.221.875.4,1.729.537,2.54.841,5.021-.008,8.543-2.391,9.918a4.575,4.575,0,0,1-2.322.593c-2.119,0-4.7-1.2-7.462-3.482-.631-.519-1.281-1.1-1.93-1.736l-.285-.275-.285.275c-.638.622-1.288,1.206-1.93,1.736-2.764,2.278-5.344,3.482-7.462,3.482Zm21.448-13.083h0l-.383.081a51.4,51.4,0,0,1-5.788.852l-.188.017-.108.155a51.453,51.453,0,0,1-3.632,4.586l-.261.293.281.273c.614.6,1.227,1.147,1.822,1.639,2.367,1.95,4.542,3.023,6.126,3.023a2.645,2.645,0,0,0,1.338-.328c1.568-.907,2.077-3.753,1.4-7.812-.126-.757-.3-1.564-.507-2.4l-.1-.38Zm-23.543,0h0l-.1.381c-.205.807-.376,1.614-.509,2.4-.679,4.059-.169,6.906,1.4,7.812a2.644,2.644,0,0,0,1.337.328c1.585,0,3.761-1.074,6.126-3.023.6-.5,1.216-1.05,1.822-1.639l.282-.273-.261-.293a51.427,51.427,0,0,1-3.633-4.586l-.108-.155-.187-.017a51.52,51.52,0,0,1-5.788-.852l-.384-.081Zm9,1.13h0l.53.683c.626.811,1.277,1.6,1.935,2.342l.306.346.306-.346c.658-.744,1.309-1.532,1.935-2.342l.53-.684-.866.026c-.619.02-1.26.029-1.9.029s-1.273-.009-1.9-.029l-.865-.025Zm2.77-17.121c-1.373,0-2.746.046-4.082.136l-.2.014-.112.166c-.741,1.1-1.468,2.271-2.16,3.466s-1.33,2.4-1.922,3.6l-.087.179.087.181c.594,1.209,1.241,2.421,1.922,3.6.692,1.2,1.418,2.363,2.16,3.466l.112.168.2.013c1.344.091,2.718.137,4.082.137s2.738-.046,4.081-.137l.2-.013.112-.168c.751-1.119,1.478-2.286,2.158-3.466s1.327-2.39,1.923-3.6l.088-.181-.088-.179c-.584-1.193-1.232-2.405-1.923-3.6s-1.412-2.355-2.158-3.466l-.112-.166-.2-.014C3849.346-2481.041,3847.973-2481.087,3846.6-2481.087Zm9.659,9.944h0l-.409.762c-.288.537-.6,1.1-.928,1.664-.313.545-.643,1.095-.977,1.635l-.456.737.858-.117c1.025-.139,2.033-.309,2.995-.5l.452-.091-.146-.437c-.313-.934-.67-1.892-1.06-2.846l-.329-.8Zm-19.318,0h0l-.328.8c-.39.951-.747,1.909-1.06,2.847l-.147.438.452.091c.961.2,1.969.366,2.994.5l.858.117-.455-.737c-.343-.554-.671-1.1-.978-1.635s-.614-1.082-.927-1.664l-.41-.762Zm-3.524-8.36h0l-.377.107c-.832.236-1.615.492-2.329.758-3.856,1.441-6.067,3.306-6.067,5.116s2.211,3.675,6.067,5.116c.723.27,1.506.525,2.329.759l.377.107.123-.373a51.737,51.737,0,0,1,2.156-5.438l.079-.171-.079-.17a51.571,51.571,0,0,1-2.156-5.439l-.123-.372Zm26.367,0h0l-.123.372a51.8,51.8,0,0,1-2.157,5.439l-.079.17.079.171a51.85,51.85,0,0,1,2.157,5.438l.123.373.377-.107c.818-.232,1.6-.488,2.33-.759,3.854-1.441,6.065-3.306,6.065-5.116s-2.211-3.676-6.065-5.116c-.731-.272-1.515-.528-2.33-.758Zm-20.073-1.195-.858.116c-1.024.14-2.032.31-2.994.5l-.452.092.147.438c.315.941.672,1.9,1.06,2.846l.328.8.41-.763c.314-.583.625-1.143.927-1.664s.635-1.079.978-1.635l.455-.736Zm13.778,0,.456.736c.32.517.649,1.067.977,1.635s.632,1.114.928,1.664l.41.763.329-.8c.388-.948.745-1.9,1.06-2.846l.146-.437-.452-.092c-.965-.2-1.972-.365-2.995-.5Zm2.751-12.167c-1.585,0-3.761,1.074-6.125,3.023-.6.5-1.216,1.048-1.824,1.639l-.281.273.261.293a51.294,51.294,0,0,1,3.632,4.586l.109.154.187.017a51.432,51.432,0,0,1,5.788.851l.383.081.1-.38c.21-.834.381-1.641.507-2.4.681-4.058.171-6.9-1.4-7.81A2.64,2.64,0,0,0,3856.241-2492.864Zm-19.28,0a2.642,2.642,0,0,0-1.338.328c-1.567.9-2.076,3.751-1.4,7.811.132.784.3,1.59.509,2.4l.1.38.383-.081a51.574,51.574,0,0,1,5.788-.851l.188-.017.109-.154a51.185,51.185,0,0,1,3.631-4.588l.261-.292-.282-.273c-.611-.595-1.224-1.146-1.822-1.639C3840.721-2491.79,3838.545-2492.864,3836.96-2492.864Zm9.64,9.732c.587,0,1.228.01,1.9.029l.865.026-.528-.685c-.637-.82-1.288-1.607-1.935-2.34l-.306-.347-.306.347c-.646.73-1.3,1.517-1.935,2.34l-.53.684.865-.026C3845.359-2483.122,3846-2483.132,3846.6-2483.132Z" transform="translate(-3822.3 2495.7)" fill="#335fff"/>
    </g>
  </g>
</svg>
