<svg xmlns="http://www.w3.org/2000/svg" xmlns:xlink="http://www.w3.org/1999/xlink" width="48" height="48" viewBox="0 0 48 48">
  <defs>
    <clipPath id="clip-Retail">
      <rect width="48" height="48"/>
    </clipPath>
  </defs>
  <g id="Retail" clip-path="url(#clip-Retail)">
    <g id="cart" transform="translate(0 -15.004)">
      <path id="Path_135435" data-name="Path 135435" d="M130.595,80.544a1.5,1.5,0,0,0-1.152-.54H93.023a1.5,1.5,0,0,0-1.449,1.887l4.8,17.94a1.5,1.5,0,0,0,1.449,1.113.629.629,0,0,0,.075,0l28.62-1.44a1.5,1.5,0,0,0,1.4-1.227l3-16.5A1.491,1.491,0,0,0,130.595,80.544Z" transform="translate(-82.943 -58)" fill="#335fff"/>
      <g id="Group_47190" data-name="Group 47190" transform="translate(18 28.004)">
        <path id="Path_135436" data-name="Path 135436" d="M385.5,153a1.5,1.5,0,0,1-1.5-1.5v-6a1.5,1.5,0,0,1,3,0v6A1.5,1.5,0,0,1,385.5,153Z" transform="translate(-366 -144.004)" fill="#fafafa"/>
        <path id="Path_135437" data-name="Path 135437" d="M289.5,153a1.5,1.5,0,0,1-1.5-1.5v-6a1.5,1.5,0,0,1,3,0v6A1.5,1.5,0,0,1,289.5,153Z" transform="translate(-279 -144.004)" fill="#fafafa"/>
        <path id="Path_135438" data-name="Path 135438" d="M193.5,153a1.5,1.5,0,0,1-1.5-1.5v-6a1.5,1.5,0,1,1,3,0v6A1.5,1.5,0,0,1,193.5,153Z" transform="translate(-192 -144.004)" fill="#fafafa"/>
      </g>
      <g id="Group_47191" data-name="Group 47191" transform="translate(0 16.004)">
        <ellipse id="Ellipse_1001" data-name="Ellipse 1001" cx="4.763" cy="4.762" rx="4.763" ry="4.762" transform="translate(15.206 35.687)" fill="#335fff"/>
        <circle id="Ellipse_1002" data-name="Ellipse 1002" cx="4.762" cy="4.762" r="4.762" transform="translate(32.788 35.687)" fill="#335fff"/>
        <path id="Path_135439" data-name="Path 135439" d="M40.5,49h-24a1.5,1.5,0,0,1-1.449-1.113L7.338,19H1.5a1.5,1.5,0,0,1,0-3H8.49a1.5,1.5,0,0,1,1.449,1.113L17.652,46H40.5a1.5,1.5,0,1,1,0,3Z" transform="translate(0 -16.004)" fill="#a3b7ff"/>
      </g>
    </g>
  </g>
</svg>
