<svg xmlns="http://www.w3.org/2000/svg" xmlns:xlink="http://www.w3.org/1999/xlink" width="48" height="48" viewBox="0 0 48 48">
  <defs>
    <clipPath id="clip-Social_Networking">
      <rect width="48" height="48"/>
    </clipPath>
  </defs>
  <g id="Social_Networking" data-name="Social Networking" clip-path="url(#clip-Social_Networking)">
    <g id="people">
      <g id="Group_47222" data-name="Group 47222">
        <g id="Group_47197" data-name="Group 47197" transform="translate(11.636 16.875)">
          <g id="Group_47196" data-name="Group 47196" transform="translate(0)">
            <g id="Group_47192" data-name="Group 47192" transform="translate(10.957)">
              <path id="Path_135440" data-name="Path 135440" d="M241,180h2.813v11.438H241Z" transform="translate(-241 -180)" fill="#c1ceff" opacity="0.7"/>
            </g>
            <g id="Group_47195" data-name="Group 47195" transform="translate(0 11.908)">
              <g id="Group_47193" data-name="Group 47193" transform="translate(0 0)">
                <path id="Path_135442" data-name="Path 135442" d="M0,0H11.115V2.812H0Z" transform="matrix(0.955, -0.297, 0.297, 0.955, 0, 3.301)" fill="#c1ceff" opacity="0.7"/>
              </g>
              <g id="Group_47194" data-name="Group 47194" transform="translate(13.302 0.021)">
                <path id="Path_135443" data-name="Path 135443" d="M0,0H2.812V11.115H0Z" transform="matrix(0.297, -0.955, 0.955, 0.297, 0, 2.686)" fill="#c1ceff" opacity="0.7"/>
              </g>
            </g>
          </g>
          <circle id="Ellipse_1003" data-name="Ellipse 1003" cx="3.516" cy="3.516" r="3.516" transform="translate(8.848 9.328)" fill="#849fff"/>
        </g>
        <g id="Group_47205" data-name="Group 47205" transform="translate(0 28.313)">
          <g id="Group_47204" data-name="Group 47204">
            <g id="Group_47203" data-name="Group 47203">
              <g id="Group_47202" data-name="Group 47202">
                <g id="Group_47201" data-name="Group 47201">
                  <g id="Group_47200" data-name="Group 47200">
                    <g id="Group_47198" data-name="Group 47198" transform="translate(0 9.375)">
                      <path id="Path_135444" data-name="Path 135444" d="M16.406,412.313h-15A1.406,1.406,0,0,1,0,410.906v-1.875A7.039,7.039,0,0,1,7.031,402h3.75a7.039,7.039,0,0,1,7.031,7.031v1.875A1.406,1.406,0,0,1,16.406,412.313Z" transform="translate(0 -402)" fill="#a3b7ff"/>
                    </g>
                    <g id="Group_47199" data-name="Group 47199" transform="translate(3.281)">
                      <path id="Path_135446" data-name="Path 135446" d="M40.625,313.25a5.625,5.625,0,1,1,5.625-5.625A5.631,5.631,0,0,1,40.625,313.25Z" transform="translate(-35 -302)" fill="#335fff"/>
                    </g>
                  </g>
                </g>
              </g>
            </g>
          </g>
        </g>
        <g id="Group_47213" data-name="Group 47213" transform="translate(30.187 28.313)">
          <g id="Group_47212" data-name="Group 47212">
            <g id="Group_47211" data-name="Group 47211">
              <g id="Group_47210" data-name="Group 47210">
                <g id="Group_47209" data-name="Group 47209">
                  <g id="Group_47208" data-name="Group 47208">
                    <g id="Group_47206" data-name="Group 47206" transform="translate(0 9.375)">
                      <path id="Path_135448" data-name="Path 135448" d="M338.406,412.313h-15A1.406,1.406,0,0,1,322,410.906v-1.875A7.039,7.039,0,0,1,329.031,402h3.75a7.039,7.039,0,0,1,7.031,7.031v1.875A1.406,1.406,0,0,1,338.406,412.313Z" transform="translate(-322 -402)" fill="#a3b7ff"/>
                    </g>
                    <g id="Group_47207" data-name="Group 47207" transform="translate(3.281)">
                      <path id="Path_135450" data-name="Path 135450" d="M362.625,313.25a5.625,5.625,0,1,1,5.625-5.625A5.631,5.631,0,0,1,362.625,313.25Z" transform="translate(-357 -302)" fill="#335fff"/>
                    </g>
                  </g>
                </g>
              </g>
            </g>
          </g>
        </g>
        <g id="Group_47221" data-name="Group 47221" transform="translate(15.094)">
          <g id="Group_47220" data-name="Group 47220">
            <g id="Group_47219" data-name="Group 47219">
              <g id="Group_47218" data-name="Group 47218">
                <g id="Group_47217" data-name="Group 47217">
                  <g id="Group_47216" data-name="Group 47216">
                    <g id="Group_47214" data-name="Group 47214" transform="translate(0 9.375)">
                      <path id="Path_135452" data-name="Path 135452" d="M177.406,110.313h-15A1.406,1.406,0,0,1,161,108.906v-1.875A7.039,7.039,0,0,1,168.031,100h3.75a7.039,7.039,0,0,1,7.031,7.031v1.875A1.406,1.406,0,0,1,177.406,110.313Z" transform="translate(-161 -100)" fill="#a3b7ff"/>
                    </g>
                    <g id="Group_47215" data-name="Group 47215" transform="translate(3.281)">
                      <path id="Path_135454" data-name="Path 135454" d="M201.625,11.25a5.625,5.625,0,1,1,5.625-5.625A5.631,5.631,0,0,1,201.625,11.25Z" transform="translate(-196)" fill="#335fff"/>
                    </g>
                  </g>
                </g>
              </g>
            </g>
          </g>
        </g>
      </g>
    </g>
  </g>
</svg>
