<svg xmlns="http://www.w3.org/2000/svg" xmlns:xlink="http://www.w3.org/1999/xlink" width="48" height="48" viewBox="0 0 48 48">
  <defs>
    <clipPath id="clip-Sports">
      <rect width="48" height="48"/>
    </clipPath>
  </defs>
  <g id="Sports" clip-path="url(#clip-Sports)">
    <g id="ball-of-basketball" transform="translate(-0.123 0)">
      <g id="_x31_4_26_" transform="translate(0.123)">
        <g id="Group_47227" data-name="Group 47227" transform="translate(0)">
          <path id="Path_135469" data-name="Path 135469" d="M168.562,3.877c.543-.72.456-2.246.378-3.592,0-.058-.006-.115-.009-.172C168.17.04,167.4,0,166.62,0a23.935,23.935,0,0,0-8.484,1.548,55.885,55.885,0,0,1,8.033,4.761A17.271,17.271,0,0,0,168.562,3.877Z" transform="translate(-142.62)" fill="#335fff"/>
          <path id="Path_135470" data-name="Path 135470" d="M360.3,178.735a15.9,15.9,0,0,0-3.034.6c4.079,7.121,5.669,16.118,6.058,22.635a23.912,23.912,0,0,0,6.849-15.847C367.39,182.7,363.7,178.349,360.3,178.735Z" transform="translate(-322.198 -161.163)" fill="#335fff"/>
          <path id="Path_135471" data-name="Path 135471" d="M33.053,37.823a21.225,21.225,0,0,0,7.7-3.561,51,51,0,0,0-8.957-4.99A24.092,24.092,0,0,0,21.274,40.634a47.049,47.049,0,0,1,8.847-2.245C31.088,38.209,32.088,38.024,33.053,37.823Z" transform="translate(-19.197 -26.398)" fill="#335fff"/>
          <path id="Path_135472" data-name="Path 135472" d="M310.171,85.581q.384.386.764.785a25.514,25.514,0,0,1,2.561,3.191,16.841,16.841,0,0,1,4.063-.912c3.761-.425,7.106,2.554,9.977,5.835a23.9,23.9,0,0,0-5.926-13.023,34.074,34.074,0,0,0-5.64,1.151A27.6,27.6,0,0,0,310.171,85.581Z" transform="translate(-279.727 -73.458)" fill="#335fff"/>
          <path id="Path_135473" data-name="Path 135473" d="M85.093,148.218c.984-3.334,2.125-5.738,4.334-7.3a22.442,22.442,0,0,0-2.149-2.656c-.358-.376-.719-.738-1.082-1.094-8.863,6.033-21,17.115-22.108,26.717a23.946,23.946,0,0,0,14.406,7.582c2.067-4.116,4.013-12.483,5.169-17.459C84.218,151.618,84.7,149.555,85.093,148.218Z" transform="translate(-57.806 -123.7)" fill="#335fff"/>
          <path id="Path_135474" data-name="Path 135474" d="M17.36,105.017A85.6,85.6,0,0,1,26.7,97.563c-.995-.88-1.993-1.692-2.973-2.436a24.091,24.091,0,0,1-9.259,4.434c-.989.206-2,.394-2.982.576-3.774.7-7.4,1.38-10.444,3.08a23.976,23.976,0,0,0,3.387,20.278C6.183,116.543,12.206,109.766,17.36,105.017Z" transform="translate(-0.123 -85.786)" fill="#335fff"/>
          <path id="Path_135475" data-name="Path 135475" d="M263.091,14.717a31.74,31.74,0,0,1,6.914-3.556,35.458,35.458,0,0,1,4.173-.968,23.91,23.91,0,0,0-11-5.413c.092,1.676.132,3.516-.876,4.853a18.684,18.684,0,0,1-2.344,2.45C260.995,12.889,262.044,13.765,263.091,14.717Z" transform="translate(-234.448 -4.312)" fill="#335fff"/>
          <path id="Path_135476" data-name="Path 135476" d="M243.054,201.941c-.375,1.269-.847,3.3-1.394,5.655-1.615,6.948-3.16,13.164-4.964,17.129.256.008.512.02.77.02a23.889,23.889,0,0,0,14.816-5.126c-.161-6.821-1.8-16.468-5.915-23.629C244.77,197.176,243.91,199.044,243.054,201.941Z" transform="translate(-213.466 -176.744)" fill="#335fff"/>
        </g>
      </g>
    </g>
  </g>
</svg>
