<svg width="32" height="26" viewBox="0 0 32 26" fill="none" xmlns="http://www.w3.org/2000/svg">
<g id="fi_764741">
<g id="Group 46819">
<g id="Group">
<g id="Group_2">
<path id="Vector" d="M17.9903 10.4999C15.081 9.89003 12.807 7.61608 12.1972 4.70673C12.1223 4.34959 11.8073 4.09375 11.4423 4.09375C11.0773 4.09375 10.7623 4.34959 10.6874 4.70678C10.0776 7.61608 7.80362 9.88998 4.89433 10.4998C4.53714 10.5746 4.28125 10.8897 4.28125 11.2547C4.28125 11.6196 4.53709 11.9347 4.89433 12.0095C7.80358 12.6194 10.0774 14.8933 10.6873 17.8027C10.7621 18.1599 11.0771 18.4158 11.4422 18.4158C11.8071 18.4158 12.1222 18.1599 12.197 17.8027C12.8069 14.8934 15.0809 12.6195 17.9902 12.0097C18.3474 11.9349 18.6033 11.6199 18.6033 11.2548C18.6033 10.8898 18.3474 10.5748 17.9903 10.4999Z" fill="#FFD333"/>
<g id="Vector_2" filter="url(#filter0_f_327_33587)">
<path d="M17.9903 10.4999C15.081 9.89003 12.807 7.61608 12.1972 4.70673C12.1223 4.34959 11.8073 4.09375 11.4423 4.09375C11.0773 4.09375 10.7623 4.34959 10.6874 4.70678C10.0776 7.61608 7.80362 9.88998 4.89433 10.4998C4.53714 10.5746 4.28125 10.8897 4.28125 11.2547C4.28125 11.6196 4.53709 11.9347 4.89433 12.0095C7.80358 12.6194 10.0774 14.8933 10.6873 17.8027C10.7621 18.1599 11.0771 18.4158 11.4422 18.4158C11.8071 18.4158 12.1222 18.1599 12.197 17.8027C12.8069 14.8934 15.0809 12.6195 17.9902 12.0097C18.3474 11.9349 18.6033 11.6199 18.6033 11.2548C18.6033 10.8898 18.3474 10.5748 17.9903 10.4999Z" fill="#FFD333"/>
</g>
</g>
</g>
<g id="Group_3">
<g id="Group_4">
<path id="Vector_3" d="M27.1358 16.1001C25.283 15.7117 23.8349 14.2635 23.4465 12.4108C23.3717 12.0536 23.0567 11.7977 22.6916 11.7977C22.3267 11.7977 22.0116 12.0535 21.9368 12.4108C21.5484 14.2635 20.1003 15.7117 18.2475 16.1C17.8903 16.1749 17.6344 16.4899 17.6344 16.8549C17.6344 17.2199 17.8902 17.5349 18.2475 17.6098C20.1002 17.9982 21.5483 19.4463 21.9367 21.2991C22.0115 21.6562 22.3265 21.9121 22.6916 21.9121C23.0565 21.9121 23.3716 21.6563 23.4464 21.2991C23.8349 19.4463 25.283 17.9982 27.1357 17.6099C27.4929 17.5349 27.7488 17.2199 27.7488 16.855C27.7488 16.49 27.493 16.175 27.1358 16.1001Z" fill="#FFD333"/>
<g id="Vector_4" filter="url(#filter1_f_327_33587)">
<path d="M27.1358 16.1001C25.283 15.7117 23.8349 14.2635 23.4465 12.4108C23.3717 12.0536 23.0567 11.7977 22.6916 11.7977C22.3267 11.7977 22.0116 12.0535 21.9368 12.4108C21.5484 14.2635 20.1003 15.7117 18.2475 16.1C17.8903 16.1749 17.6344 16.4899 17.6344 16.8549C17.6344 17.2199 17.8902 17.5349 18.2475 17.6098C20.1002 17.9982 21.5483 19.4463 21.9367 21.2991C22.0115 21.6562 22.3265 21.9121 22.6916 21.9121C23.0565 21.9121 23.3716 21.6563 23.4464 21.2991C23.8349 19.4463 25.283 17.9982 27.1357 17.6099C27.4929 17.5349 27.7488 17.2199 27.7488 16.855C27.7488 16.49 27.493 16.175 27.1358 16.1001Z" fill="#FFD333"/>
</g>
</g>
</g>
</g>
</g>
<defs>
<filter id="filter0_f_327_33587" x="0.28125" y="0.09375" width="22.322" height="22.322" filterUnits="userSpaceOnUse" color-interpolation-filters="sRGB">
<feFlood flood-opacity="0" result="BackgroundImageFix"/>
<feBlend mode="normal" in="SourceGraphic" in2="BackgroundImageFix" result="shape"/>
<feGaussianBlur stdDeviation="2" result="effect1_foregroundBlur_327_33587"/>
</filter>
<filter id="filter1_f_327_33587" x="13.6344" y="7.79773" width="18.1144" height="18.1144" filterUnits="userSpaceOnUse" color-interpolation-filters="sRGB">
<feFlood flood-opacity="0" result="BackgroundImageFix"/>
<feBlend mode="normal" in="SourceGraphic" in2="BackgroundImageFix" result="shape"/>
<feGaussianBlur stdDeviation="2" result="effect1_foregroundBlur_327_33587"/>
</filter>
</defs>
</svg>
