<svg xmlns="http://www.w3.org/2000/svg" xmlns:xlink="http://www.w3.org/1999/xlink" width="48" height="48" viewBox="0 0 48 48">
  <defs>
    <clipPath id="clip-Web_App">
      <rect width="48" height="48"/>
    </clipPath>
  </defs>
  <g id="Web_App" data-name="Web App" clip-path="url(#clip-Web_App)">
    <g id="Group_47282" data-name="Group 47282" transform="translate(-121 -215)">
      <g id="web-development" transform="translate(121 215)">
        <path id="Path_135332" data-name="Path 135332" d="M48,12.294V5.235A4.232,4.232,0,0,0,43.781,1H4.219A4.232,4.232,0,0,0,0,5.235v7.059ZM32.438,6.647h8.438a1.412,1.412,0,0,1,0,2.824H32.438a1.412,1.412,0,0,1,0-2.824Zm-14.063,0a1.412,1.412,0,1,1-1.406,1.412A1.409,1.409,0,0,1,18.375,6.647Zm-5.625,0a1.412,1.412,0,1,1-1.406,1.412A1.409,1.409,0,0,1,12.75,6.647Zm-5.625,0A1.412,1.412,0,1,1,5.719,8.059,1.409,1.409,0,0,1,7.125,6.647Z" transform="translate(0 -1)" fill="#335fff"/>
        <path id="Path_135333" data-name="Path 135333" d="M0,151v29.647a4.232,4.232,0,0,0,4.219,4.235H43.781A4.232,4.232,0,0,0,48,180.647V151Z" transform="translate(0 -136.882)" fill="#335fff" opacity="0.2"/>
      </g>
      <path id="Path_135333-2" data-name="Path 135333" d="M85.319,621.836a1.41,1.41,0,0,1-1.757,2.2l-7.031-5.647a1.416,1.416,0,0,1,0-2.2l7.031-5.647a1.41,1.41,0,0,1,1.757,2.2l-5.659,4.545Zm13.07-13.871-8.438,19.765a1.407,1.407,0,1,1-2.585-1.112L95.8,606.852a1.407,1.407,0,1,1,2.585,1.112Zm10.836,10.429-7.031,5.647a1.41,1.41,0,0,1-1.757-2.2l5.659-4.545-5.659-4.545a1.41,1.41,0,0,1,1.757-2.2l7.031,5.647a1.416,1.416,0,0,1,0,2.2Z" transform="translate(52.121 -371.232)" fill="#335fff"/>
    </g>
  </g>
</svg>
