<svg width="251" height="221" viewBox="0 0 251 221" fill="none" xmlns="http://www.w3.org/2000/svg">
<path opacity="0.3" d="M260.236 204.28C260.277 204.151 260.312 204.056 260.339 203.983C260.397 203.826 260.446 203.691 260.442 203.522L260.37 196.15C260.299 188.969 260.228 181.788 260.184 174.604C260.176 173.385 259.332 172.866 258.542 172.475C253.686 170.062 248.835 167.643 243.983 165.224C239.271 162.874 234.559 160.525 229.842 158.18C229.527 158.023 229.191 157.933 228.835 157.838C228.663 157.792 228.474 157.742 228.265 157.677L228.116 157.631L228.115 157.529L228.429 157.405C228.646 157.318 228.827 157.25 228.983 157.192C229.281 157.08 229.499 156.996 229.703 156.894L238.26 152.654C245.039 149.294 251.815 145.935 258.607 142.599C260.088 141.87 260.3 140.888 260.308 139.935C260.365 134.183 260.444 128.428 260.523 122.672C260.571 119.206 260.619 115.739 260.662 112.272C260.668 111.93 260.612 111.604 260.553 111.259C260.528 111.108 260.5 110.95 260.477 110.782L260.463 110.674L261 110.414L260.78 110.291L260.772 109.535L260.567 91.0609L260.434 79.0518L260.43 78.706L260.076 78.5294C250.924 73.9637 241.853 69.4431 232.627 64.8452L228.764 62.9202L228.659 62.8679C228.812 62.8296 228.925 62.8044 229.013 62.7849C229.191 62.7449 229.332 62.7134 229.486 62.6403L236.126 59.3525C243.789 55.5581 251.449 51.7649 259.12 47.9839C260.131 47.4851 260.587 46.7966 260.6 45.7517C260.656 40.9098 260.72 36.0685 260.783 31.2273C260.844 26.6134 260.905 21.9995 260.959 17.386C260.963 17.0851 260.865 16.8204 260.77 16.5645C260.733 16.4648 260.695 16.361 260.662 16.2503L260.567 15.9236L260.989 15.6969L260.05 15.1763C259.806 15.0409 259.588 14.9134 259.384 14.7944C259.03 14.5872 258.695 14.3915 258.339 14.2222L250.676 10.5827C243.917 7.37403 236.927 4.05604 230.078 0.760408C229.353 0.412163 228.722 0.250017 228.09 0.250017C227.465 0.250017 226.84 0.408598 226.123 0.749185C218.925 4.18702 211.584 7.64819 204.485 10.9954L197.984 14.0619C197.625 14.2309 197.266 14.4055 196.851 14.6077L195.997 15.0218L195.381 15.3192L195.07 15.1553C194.842 15.0351 194.634 14.9234 194.439 14.8183C194.026 14.5958 193.667 14.403 193.298 14.2272C190.696 12.9895 188.093 11.7539 185.491 10.5184C178.89 7.38542 172.065 4.14571 165.38 0.921308C164.543 0.514295 163.815 0.324364 163.091 0.324364C162.38 0.324364 161.67 0.505657 160.856 0.895129C153.968 4.20831 146.931 7.53136 140.125 10.7449C137.715 11.8831 135.304 13.0215 132.895 14.1617C132.371 14.411 131.852 14.663 131.059 15.0491L130.604 15.2711L130.16 15.0497L130.161 15.1971C129.889 15.0462 129.66 14.9149 129.457 14.7985C129.081 14.583 128.787 14.4158 128.481 14.2688C125.825 13.0054 123.171 11.7448 120.516 10.4843C113.789 7.28979 106.832 3.98659 100.014 0.707425C99.3216 0.371735 98.7047 0.214844 98.0747 0.214844C97.4364 0.214844 96.7923 0.381086 96.0471 0.737968C89.6422 3.79399 83.2222 6.82659 76.8024 9.85911C73.6505 11.348 70.4985 12.8369 67.3486 14.3285C67.0289 14.479 66.7713 14.6662 66.4728 14.8831C66.331 14.9861 66.1757 15.0992 65.9945 15.2211L65.7051 15.4156L65.6966 15.3322L65.5886 15.3751L65.2949 15.2461L65.2926 15.2951L65.1125 15.1906C64.9347 15.0873 64.7819 14.995 64.6438 14.9115C64.3701 14.7459 64.1338 14.6031 63.8711 14.4774C60.9057 13.0659 57.9399 11.6572 54.974 10.2486C48.3819 7.11759 41.5655 3.88 34.8821 0.671093C34.3059 0.394172 33.7596 0.259631 33.2116 0.259631C32.4506 0.259631 31.787 0.527917 31.2937 0.761832C24.6867 3.90066 18.0673 7.02418 11.4483 10.1475L2.78569 14.237C2.40813 14.4131 2.03162 14.5974 1.5054 14.8553L1.03901 15.0834L0.651492 15.2728L0.366994 15.1309L0.352382 15.4192L0.0435346 15.57L0.335761 15.7395L0.314481 16.1563C0.29754 16.4838 0.279221 16.7656 0.263021 17.0181C0.23274 17.4872 0.208918 17.8594 0.211142 18.2327L0.288541 25.2421C0.36308 31.793 0.439841 38.567 0.466417 45.23C0.469593 46.6357 1.07755 47.5035 2.56441 48.2247C8.36667 51.0723 14.2486 54.0092 19.9366 56.8494L24.811 59.2823L28.9432 61.3431L32.251 62.9935L32.1512 63.0417L30.1326 64.0153C28.3422 64.8779 26.6692 65.6841 25.0078 66.5048C21.7902 68.0902 18.5734 69.6788 15.3565 71.2674C11.022 73.4078 6.68722 75.5484 2.34831 77.6829C1.34256 78.1763 0.358947 78.7775 0.349629 80.2005C0.297431 86.0633 0.218447 91.9263 0.139461 97.7901C0.0909689 101.391 0.0422644 104.992 0.000230491 108.593C-0.00548697 108.897 0.0961566 109.168 0.194624 109.43C0.233693 109.534 0.275198 109.643 0.310138 109.761L0.531848 110.504L1.34617 110.16C1.52944 110.083 1.69917 110.014 1.85851 109.949C2.21363 109.805 2.52025 109.68 2.82561 109.526L10.7563 105.586C17.4485 102.26 24.3688 98.8206 31.1937 95.4642C32.1329 95.0017 32.6659 94.4441 32.8868 93.6467L32.8918 94.1111L32.8953 94.4571L33.2494 94.6336C43.6843 99.8363 53.9837 104.968 64.6554 110.284L65.7695 110.839L65.7681 110.719L65.9068 110.797C66.0981 110.903 66.2622 110.998 66.4102 111.084C66.6929 111.247 66.9229 111.379 67.1626 111.493L75.0814 115.255C81.9361 118.509 89.024 121.874 95.9724 125.211C96.6096 125.516 97.2046 125.664 97.7925 125.664C98.0532 125.664 98.3151 125.635 98.5853 125.576C98.0502 126.032 97.6734 126.646 97.6649 127.576C97.6122 133.757 97.5275 139.937 97.4429 146.118C97.3996 149.284 97.3561 152.449 97.3172 155.615C97.3122 155.926 97.3924 156.221 97.4699 156.506C97.5065 156.642 97.5458 156.785 97.5771 156.939L97.6663 157.376L97.3425 157.576L97.5333 157.679L97.2918 157.639L97.3002 158.391L97.3941 166.964L97.6337 188.671L97.6376 189.017L97.9917 189.193C104.87 192.62 111.692 196.022 118.632 199.484L129.393 204.85L130.507 205.406L130.506 205.273L130.612 205.33C130.856 205.461 131.074 205.58 131.276 205.691C131.686 205.917 132.034 206.108 132.394 206.28C135.074 207.555 137.753 208.826 140.432 210.098C147.011 213.22 153.814 216.448 160.477 219.66C161.229 220.023 161.888 220.192 162.55 220.192C163.207 220.192 163.863 220.025 164.615 219.667C171.588 216.334 178.701 212.978 185.58 209.732L192.75 206.348C193.09 206.191 193.431 206.025 193.851 205.821L194.673 205.424L195.162 205.189L195.249 205.23L195.26 205.141L195.293 205.125L195.568 205.28C195.763 205.389 195.929 205.488 196.079 205.576C196.354 205.739 196.582 205.872 196.821 205.986C199.48 207.251 202.139 208.514 204.798 209.777C211.699 213.055 218.835 216.444 225.831 219.811C226.398 220.083 226.941 220.215 227.489 220.215C228.278 220.215 228.973 219.934 229.606 219.63C236.082 216.551 242.57 213.488 249.058 210.424L257.585 206.396C257.959 206.223 258.334 206.039 258.792 205.816L259.667 205.389L260.689 204.895L260.138 204.586L260.236 204.28ZM259.578 139.931C259.569 140.897 259.315 141.539 258.239 142.069C248.588 146.809 238.968 151.596 229.33 156.366C229.039 156.511 228.711 156.613 228.117 156.849C228.082 156.142 228.03 155.687 228.038 155.235C228.16 146.072 228.299 136.907 228.393 127.741C228.405 126.779 228.67 126.148 229.744 125.618C239.333 120.906 248.889 116.138 258.456 111.391C258.814 111.216 259.196 111.087 259.752 110.852C259.826 111.394 259.94 111.828 259.931 112.266C259.817 121.491 259.669 130.714 259.578 139.931ZM98.9715 94.9683C98.6221 94.8581 98.2805 94.8041 97.939 94.8041C97.5449 94.8041 97.1475 94.8758 96.718 95.0264C97.361 94.586 97.7352 94.0554 97.8859 93.3684C98.0463 94.0065 98.3947 94.5206 98.9715 94.9683ZM96.8419 30.8415C97.2501 30.9545 97.6448 31.0087 98.043 31.0087C98.4078 31.0087 98.7696 30.9637 99.1484 30.8683C98.5327 31.3084 98.1756 31.834 98.0344 32.5072C97.861 31.8345 97.4792 31.3018 96.8419 30.8415ZM98.5099 92.4505C98.4857 83.4556 98.3546 74.4618 98.2648 65.4669C98.2591 64.9021 98.3089 64.3359 98.3416 63.5696C99.0305 63.8383 99.5267 63.9977 99.9747 64.2209C109.418 68.921 118.853 73.6296 128.301 78.3261C129.184 78.7663 129.761 79.192 129.77 80.1995C129.82 89.6023 129.945 99.0037 130.041 108.41C130.046 108.741 129.974 109.077 129.902 109.689C128.984 109.257 128.375 108.986 127.785 108.688C118.639 104.136 109.516 99.5577 100.342 95.0483C99.0548 94.415 98.5157 93.7434 98.5099 92.4505ZM228.832 94.9687C228.5 94.8815 228.178 94.8394 227.852 94.8394C227.55 94.8394 227.245 94.8769 226.928 94.9545C227.477 94.5392 227.728 94.0666 227.843 93.5905C227.978 94.2419 228.373 94.6614 228.832 94.9687ZM226.96 30.8866C227.323 30.9801 227.673 31.0253 228.022 31.0253C228.419 31.0252 228.813 30.9678 229.225 30.8477C228.593 31.2387 228.217 31.7137 228.054 32.3382C227.91 31.6308 227.464 31.1979 226.96 30.8866ZM229.423 95.8626C238.887 100.42 248.399 104.91 257.892 109.429C258.363 109.65 258.799 109.925 259.613 110.378C258.681 110.831 258.092 111.118 257.5 111.403C248.228 115.776 238.941 120.131 229.697 124.547C229.022 124.868 228.431 125.043 227.829 125.043C227.283 125.043 226.728 124.9 226.092 124.593C216.752 120.088 207.357 115.66 197.986 111.202C197.457 110.949 196.956 110.651 196.249 110.269C196.822 109.921 197.216 109.625 197.666 109.41C207.174 104.906 216.694 100.427 226.183 95.8951C226.787 95.6082 227.315 95.4536 227.852 95.4536C228.346 95.4535 228.847 95.5841 229.423 95.8626ZM227.207 92.6628C227.198 93.5995 227.017 94.2771 225.913 94.8156C216.252 99.5576 206.625 104.354 196.988 109.131C196.698 109.276 196.376 109.377 195.868 109.579C195.785 109.036 195.659 108.607 195.666 108.176C195.781 98.9461 195.942 89.7136 196.008 80.4837C196.019 79.319 196.521 78.7075 197.674 78.1413C207.154 73.4856 216.599 68.7747 226.059 64.0925C226.408 63.9173 226.793 63.7975 227.468 63.5361C227.513 64.2387 227.57 64.6933 227.566 65.1454C227.446 74.3179 227.308 83.4915 227.207 92.6628ZM195.382 79.6292C195.265 79.0888 194.973 78.6643 194.461 78.2949C194.77 78.3796 195.074 78.4213 195.379 78.4213C195.668 78.4213 195.944 78.3824 196.202 78.3212C195.78 78.6942 195.515 79.1184 195.382 79.6292ZM195.603 141.931L195.88 142.069C195.678 142.028 195.477 142.008 195.273 142.008C195.035 142.008 194.807 142.037 194.593 142.083C194.909 141.789 195.121 141.449 195.241 141.043L195.245 141.408L195.249 141.754L195.603 141.931ZM225.448 63.8957C215.95 68.3921 206.437 72.8715 196.945 77.3809C196.393 77.6432 195.899 77.8072 195.379 77.8072C194.976 77.8072 194.558 77.7089 194.084 77.4816C184.435 72.8487 174.756 68.2685 165.09 63.6738C164.741 63.5082 164.424 63.2936 163.755 62.9038C164.528 62.5295 165.003 62.2909 165.485 62.0679C174.99 57.5811 184.498 53.0992 193.994 48.5946C194.546 48.3319 195.042 48.1656 195.566 48.1656C195.968 48.1656 196.387 48.2634 196.861 48.4903C206.505 53.1256 216.183 57.7023 225.852 62.2957C226.2 62.4636 226.518 62.6748 227.047 62.9817C226.418 63.3465 225.958 63.6583 225.448 63.8957ZM164.902 64.2364C174.41 68.9653 183.909 73.7158 193.428 78.4328C194.308 78.8681 194.706 79.3276 194.712 80.2163C194.779 89.6813 194.898 99.1512 194.998 108.619C195 108.845 194.948 109.077 194.89 109.6C189.458 107.139 184.393 104.443 179.227 101.901C174.018 99.3323 168.835 96.7237 163.606 94.108C163.494 83.9882 163.387 73.9401 163.275 63.6536C163.965 63.8981 164.468 64.0206 164.902 64.2364ZM194.542 110.292C192.785 111.144 191.356 111.847 189.911 112.527C181.553 116.484 173.169 120.402 164.841 124.397C164.095 124.755 163.446 124.95 162.781 124.95C162.183 124.95 161.571 124.792 160.865 124.45C151.658 119.984 142.385 115.619 133.136 111.214C132.547 110.933 131.978 110.624 131.219 110.233C131.728 109.898 132.053 109.607 132.448 109.422C142.013 104.891 151.599 100.384 161.146 95.8266C161.749 95.5399 162.277 95.3866 162.813 95.3866C163.309 95.3866 163.812 95.5177 164.39 95.7953C173.855 100.353 183.366 104.845 192.858 109.36C193.328 109.583 193.76 109.858 194.542 110.292ZM162.871 93.7435L162.876 94.1136L162.879 94.4591L163.232 94.6356L163.732 94.8856C163.421 94.8093 163.119 94.7724 162.813 94.7724C162.595 94.7724 162.377 94.7917 162.154 94.8311C162.551 94.4963 162.762 94.1223 162.871 93.7435ZM162.68 31.264L162.405 31.1268C162.627 31.1748 162.848 31.1984 163.071 31.1984C163.271 31.1983 163.472 31.1791 163.678 31.1393C163.334 31.4531 163.145 31.7978 163.042 32.1469L163.038 31.7867L163.034 31.4405L162.68 31.264ZM162.254 92.8679C162.244 93.6918 162.033 94.2771 161.11 94.7363C151.281 99.572 141.478 104.445 131.668 109.307C131.493 109.398 131.283 109.432 130.811 109.579C130.77 108.935 130.713 108.481 130.72 108.032C130.84 98.8668 130.982 89.7064 131.076 80.5411C131.088 79.5829 131.329 78.9352 132.406 78.4053C142.057 73.6606 151.676 68.8705 161.303 64.0925C161.598 63.945 161.92 63.8382 162.388 63.651C162.479 64.102 162.625 64.4786 162.617 64.8479C162.503 74.1896 162.362 83.5299 162.254 92.8679ZM130.443 79.6601C130.285 78.9314 129.821 78.4772 129.29 78.1392C129.663 78.2364 130.023 78.2831 130.386 78.2831H130.386C130.798 78.2831 131.204 78.2241 131.636 78.0979C130.905 78.5567 130.581 79.0977 130.443 79.6601ZM160.098 63.9833C150.839 68.368 141.564 72.724 132.336 77.1483C131.63 77.4863 131.015 77.6691 130.386 77.6691C129.81 77.6692 129.222 77.5155 128.539 77.1868C119.22 72.6724 109.833 68.2543 100.468 63.7975C99.9919 63.5744 99.5453 63.3058 98.9122 62.9616C99.2931 62.6869 99.5453 62.4374 99.8633 62.2863C109.663 57.6473 119.477 53.0262 129.277 48.3765C129.71 48.1691 130.105 48.0521 130.51 48.0521C130.854 48.0521 131.204 48.1368 131.59 48.3226C141.486 53.0538 151.394 57.7625 161.298 62.4818C161.468 62.5657 161.602 62.7013 162.057 63.0371C161.273 63.4173 160.685 63.7039 160.098 63.9833ZM130.221 140.829C130.351 141.499 130.754 141.925 131.224 142.236C130.889 142.147 130.564 142.105 130.235 142.105C129.913 142.105 129.59 142.147 129.252 142.234C129.752 141.851 130.066 141.396 130.221 140.829ZM130.235 142.719C130.729 142.719 131.231 142.849 131.808 143.126C141.274 147.683 150.784 152.176 160.276 156.695C160.743 156.918 161.177 157.188 162.001 157.645C161.067 158.097 160.481 158.386 159.89 158.666C150.615 163.042 141.33 167.395 132.086 171.812C131.411 172.135 130.821 172.311 130.219 172.311C129.675 172.311 129.12 172.167 128.482 171.86C119.142 167.355 109.748 162.924 100.376 158.467C99.845 158.214 99.3401 157.922 98.6328 157.541C99.2061 157.188 99.5996 156.891 100.049 156.678C109.56 152.176 119.077 147.695 128.562 143.163C129.167 142.874 129.696 142.719 130.235 142.719ZM161.013 156.395C151.383 151.604 141.759 146.799 132.127 142.007C131.349 141.624 130.915 141.209 130.907 140.373C130.844 130.788 130.728 121.201 130.633 111.616C130.631 111.446 130.684 111.275 130.776 110.712C141.339 115.974 151.652 121.115 162.094 126.319C162.204 136.431 162.315 146.528 162.429 156.825C161.834 156.649 161.384 156.577 161.013 156.395ZM162.824 126.314L162.82 125.968L162.466 125.791L161.777 125.448C162.116 125.526 162.448 125.565 162.781 125.565C163.157 125.565 163.53 125.517 163.921 125.415C163.291 125.882 162.98 126.403 162.831 126.941L162.824 126.314ZM163.712 189.531C163.368 189.427 163.032 189.376 162.695 189.376C162.254 189.376 161.85 189.463 161.486 189.586C162.145 189.168 162.519 188.663 162.648 188.013C162.817 188.614 163.16 189.104 163.712 189.531ZM163.432 128.003C163.443 126.842 163.787 126.102 165.076 125.476C174.508 120.866 183.89 116.184 193.288 111.526C193.698 111.323 194.141 111.161 194.744 110.899C194.846 111.377 194.994 111.748 194.991 112.116C194.874 121.46 194.732 130.808 194.63 140.158C194.622 141.066 194.325 141.655 193.338 142.137C183.685 146.899 174.06 151.694 164.424 156.475C164.132 156.62 163.811 156.719 163.175 156.963C163.135 156.19 163.082 155.68 163.085 155.17C163.206 146.114 163.355 137.062 163.432 128.003ZM164.819 156.734C174.504 152.159 184.191 147.593 193.873 143.002C194.362 142.771 194.807 142.622 195.273 142.622C195.618 142.622 195.975 142.704 196.37 142.893C206.205 147.6 216.056 152.278 225.899 156.966C226.127 157.077 226.323 157.237 226.835 157.573C225.985 157.988 225.396 158.279 224.794 158.563C215.537 162.942 206.257 167.294 197.032 171.727C196.342 172.06 195.742 172.228 195.141 172.228C194.541 172.228 193.938 172.061 193.241 171.722C183.975 167.239 174.648 162.847 165.347 158.419C164.815 158.168 164.312 157.871 163.589 157.485C164.102 157.168 164.437 156.918 164.819 156.734ZM195.975 141.402C195.865 131.312 195.756 121.224 195.644 111.108C197.254 111.399 223.661 124.368 227.053 126.503C227.158 136.509 227.267 146.583 227.379 157.045C216.694 151.724 206.394 146.592 195.975 141.402ZM227.786 126.778L227.783 126.497L227.78 126.194L227.49 126.011C227.274 125.875 226.936 125.68 226.494 125.437C226.951 125.586 227.387 125.657 227.829 125.657C228.08 125.657 228.332 125.633 228.591 125.584C228.144 125.954 227.908 126.36 227.786 126.778ZM227.97 189.196C228.133 189.277 228.297 189.359 228.46 189.44C228.158 189.368 227.862 189.332 227.568 189.332C227.33 189.332 227.095 189.354 226.853 189.4C227.263 189.048 227.489 188.651 227.607 188.208L227.612 188.673L227.616 189.019L227.97 189.196ZM259.703 79.0576C259.816 89.1751 259.926 99.2735 260.041 109.541C259.509 109.403 259.111 109.368 258.793 109.208C249.105 104.391 239.423 99.5542 229.73 94.7412C228.944 94.3468 228.527 93.9197 228.523 93.0923C228.456 83.5072 228.343 73.9235 228.251 64.3384C228.249 64.1693 228.301 63.9978 228.392 63.4485C238.956 68.7135 249.277 73.8562 259.703 79.0576ZM260.228 17.38C260.118 26.8343 259.978 36.2896 259.87 45.7451C259.86 46.5236 259.579 47.0452 258.751 47.4542C248.866 52.3259 239.001 57.2179 229.125 62.1063C229.007 62.1628 228.864 62.1748 228.423 62.2863C228.385 61.6939 228.328 61.2441 228.335 60.7968C228.453 51.5739 228.593 42.3523 228.687 33.1259C228.697 32.2072 229.018 31.6375 229.993 31.1578C239.638 26.4049 249.256 21.6209 258.885 16.8403C259.18 16.6928 259.501 16.5836 259.953 16.3966C260.061 16.7683 260.232 17.073 260.228 17.38ZM198.341 14.5975C207.726 10.1672 217.123 5.75381 226.482 1.2838C227.07 1.00438 227.58 0.864053 228.089 0.864053C228.604 0.864053 229.119 1.0067 229.715 1.29332C239.112 5.8149 248.555 10.2752 257.979 14.757C258.5 15.0041 258.977 15.3171 259.648 15.6889C258.94 16.0691 258.448 16.3653 257.923 16.6136C248.545 21.0558 239.15 25.4695 229.801 29.9489C229.155 30.2584 228.587 30.4111 228.022 30.4112C227.44 30.4112 226.859 30.2492 226.196 29.9297C216.862 25.431 207.478 20.9983 198.117 16.5465C197.597 16.2995 197.12 15.9852 196.36 15.5546C197.183 15.1577 197.759 14.871 198.341 14.5975ZM195.939 16.4205C196.406 16.5357 196.807 16.5679 197.12 16.7228C206.809 21.5404 216.478 26.3701 226.166 31.1829C226.956 31.5739 227.367 32.0081 227.372 32.8284C227.442 42.4085 227.552 51.9827 227.645 61.5629C227.647 61.7356 227.583 61.9084 227.498 62.3522C226.753 62.032 226.202 61.8221 225.684 61.5677C216.358 56.9203 207.053 52.2598 197.708 47.6424C196.641 47.1158 196.145 46.5642 196.142 45.462C196.098 36.2344 195.974 27.0044 195.874 17.7792C195.874 17.3752 195.914 16.9699 195.939 16.4205ZM195.488 46.1863C195.626 46.7909 195.958 47.2709 196.528 47.6902C196.204 47.5973 195.886 47.5517 195.566 47.5517C195.138 47.5517 194.74 47.637 194.385 47.7537C195.07 47.29 195.366 46.7477 195.488 46.1863ZM195.1 16.3125C195.142 16.9626 195.199 17.4183 195.198 17.8705C195.074 27.031 194.934 36.1951 194.837 45.3626C194.83 46.3162 194.603 46.9734 193.521 47.5095C183.865 52.2409 174.244 57.031 164.608 61.8042C164.317 61.9493 163.992 62.0536 163.522 62.2431C163.432 61.791 163.292 61.4155 163.295 61.0439C163.407 51.7047 163.551 42.3655 163.657 33.0287C163.667 32.2048 163.892 31.6148 164.812 31.1603C174.639 26.3209 184.441 21.4482 194.251 16.5861C194.427 16.4985 194.636 16.46 195.1 16.3125ZM133.253 14.6971C142.581 10.2823 151.929 5.89646 161.217 1.42894C161.904 1.10001 162.499 0.938579 163.091 0.938579C163.704 0.938579 164.314 1.11257 165.016 1.45413C174.296 5.92994 183.627 10.3315 192.938 14.7617C193.472 15.016 193.983 15.3074 194.682 15.6757C194.214 16.0031 193.906 16.2969 193.524 16.472C183.831 21.0582 174.132 25.6265 164.443 30.2162C163.961 30.4468 163.523 30.5841 163.071 30.5841C162.713 30.5842 162.347 30.4987 161.941 30.3062C152.098 25.5952 142.234 20.9143 132.381 16.2201C132.149 16.1086 131.946 15.9468 131.397 15.5942C132.203 15.2019 132.725 14.9477 133.253 14.6971ZM162.308 31.7922C162.418 41.9445 162.53 52.0141 162.642 62.4914C151.964 57.1701 141.668 52.0381 131.238 46.845C131.126 36.7587 131.015 26.6688 130.901 16.1338C141.642 21.49 151.953 26.6304 162.308 31.7922ZM130.507 46.8506L130.511 47.1969L130.866 47.3733C130.952 47.4162 131.037 47.4587 131.124 47.5016C130.919 47.4591 130.715 47.438 130.51 47.438C130.292 47.438 130.075 47.4613 129.854 47.5093C130.203 47.1729 130.397 46.8091 130.503 46.4358L130.507 46.8506ZM130.248 17.7938C130.128 27.0238 129.99 36.2537 129.891 45.4874C129.878 46.4444 129.619 47.0872 128.542 47.6185C118.999 52.3079 109.501 57.0513 99.9845 61.7729C99.5839 61.972 99.1488 62.1183 98.4428 62.3966C98.3943 61.7083 98.3375 61.3041 98.3416 60.9011C98.4628 51.671 98.6154 42.441 98.6938 33.2075C98.7038 32.1413 99.1275 31.5212 100.224 30.9827C109.706 26.3295 119.155 21.6257 128.616 16.9374C129.017 16.7384 129.454 16.5885 130.078 16.3306C130.151 16.9231 130.253 17.3583 130.248 17.7938ZM67.7064 14.8637C77.2728 10.334 86.8561 5.82932 96.408 1.27178C97.0093 0.983724 97.5371 0.829146 98.0741 0.829146C98.5701 0.829146 99.0738 0.96084 99.651 1.2407C109.117 5.79335 118.628 10.2872 128.119 14.8026C128.586 15.0268 129.021 15.3028 129.803 15.7345C128.044 16.5836 126.619 17.2913 125.174 17.9748C116.814 21.9254 108.434 25.8436 100.106 29.8398C99.3586 30.1985 98.708 30.3946 98.0431 30.3946C97.4452 30.3946 96.8356 30.2361 96.1326 29.895C86.9844 25.4539 77.773 21.1195 68.5818 16.7444C67.9301 16.4337 67.2883 16.1134 66.4498 15.701C66.9903 15.3375 67.3113 15.0497 67.7064 14.8637ZM65.978 16.2394C66.7891 16.5956 67.3954 16.8294 67.9689 17.1173C77.18 21.6999 86.3653 26.3173 95.6079 30.8615C96.9057 31.4984 97.4135 32.1832 97.4161 33.4665C97.4447 42.4662 97.5761 51.4683 97.6687 60.4668C97.6744 61.0317 97.6142 61.599 97.5801 62.3774C96.7687 62.02 96.1599 61.7825 95.5893 61.5007C86.3811 56.9156 77.1898 52.2995 67.9472 47.7576C66.6509 47.1184 66.1518 46.4288 66.1474 45.1479C66.1161 36.1494 65.9878 27.1509 65.895 18.144C65.8866 17.585 65.9406 17.0226 65.978 16.2394ZM97.0227 62.9123C96.6616 63.2014 96.438 63.4879 96.1228 63.6355C86.3141 68.2793 76.4882 72.9039 66.6852 77.5561C66.257 77.7557 65.8689 77.8622 65.4781 77.8623C65.1201 77.8623 64.7604 77.7727 64.3664 77.5836C54.4591 72.8487 44.5423 68.1341 34.6321 63.4087C34.454 63.3261 34.3112 63.1918 33.895 62.9074C34.5881 62.5273 35.077 62.2299 35.605 61.9815C44.93 57.5681 54.2739 53.1809 63.5677 48.7182C64.2702 48.382 64.8785 48.2074 65.4931 48.2074C66.0824 48.2074 66.6779 48.3679 67.3683 48.7003C76.6395 53.1833 85.976 57.5812 95.287 62.0127C95.826 62.2682 96.3394 62.5549 97.0227 62.9123ZM65.5284 46.1051C65.7 46.7773 66.077 47.3097 66.7054 47.7693C66.2897 47.6505 65.8917 47.5937 65.493 47.5937C65.1693 47.5937 64.8438 47.6319 64.5067 47.7109C65.1425 47.2555 65.4216 46.7226 65.5284 46.1051ZM65.209 17.8705C65.0966 27.0417 64.9568 36.2155 64.8554 45.3855C64.8481 46.3318 64.6387 46.9925 63.545 47.531C53.9431 52.2432 44.3783 57.0128 34.8006 61.761C34.4525 61.9325 34.0745 62.0632 33.3702 62.3523C33.3459 61.4828 33.3103 60.9118 33.316 60.3434C33.4372 51.4025 33.5925 42.4662 33.6467 33.5252C33.6569 32.2047 34.0988 31.43 35.5093 30.7379C44.8873 26.1686 54.2025 21.5081 63.5434 16.8797C63.953 16.6771 64.3948 16.5295 65.0579 16.2657C65.1219 16.8978 65.2148 17.3848 65.209 17.8705ZM3.14261 14.7726C12.6462 10.2823 22.1625 5.80528 31.6516 1.29706C32.2035 1.03546 32.6949 0.874026 33.2109 0.874026C33.6177 0.874026 34.0399 0.974198 34.5195 1.20473C44.1614 5.83413 53.8462 10.4119 63.5093 15.0113C63.86 15.1792 64.1725 15.3915 64.6971 15.6962C64.1209 16.0344 63.7132 16.3126 63.2655 16.5273C53.7063 21.0476 44.1344 25.5619 34.5824 30.0965C34.0328 30.3559 33.5431 30.5144 33.0302 30.5144C32.6206 30.5144 32.1961 30.4133 31.7143 30.1817C22.0696 25.5511 12.3909 20.9744 2.72608 16.3786C2.37234 16.2085 2.05884 15.9938 1.40546 15.6147C2.18843 15.2319 2.66203 14.9969 3.14261 14.7726ZM32.2776 92.6784C32.2691 93.7133 31.9567 94.3767 30.8244 94.9343C21.3451 99.5961 11.9029 104.308 2.44805 109C2.03861 109.207 1.59361 109.368 1.01752 109.612C0.900628 109.219 0.723701 108.911 0.729524 108.599C0.840803 99.1318 0.994965 89.6693 1.07903 80.2041C1.08623 79.1177 1.77476 78.675 2.71624 78.2133C10.2758 74.4942 17.8227 70.7571 25.3769 67.0345C27.6444 65.9143 29.9332 64.8217 32.5143 63.5744C32.5673 64.2569 32.6369 64.7126 32.6313 65.1599C32.5115 74.3324 32.3662 83.5047 32.2776 92.6784ZM25.1828 58.7542C17.7701 55.0579 10.367 51.3436 2.92873 47.6929C1.70922 47.1016 1.19867 46.4468 1.19603 45.2283C1.16024 36.2273 1.03477 27.2289 0.940752 18.2303C0.937787 17.6655 0.996232 17.1031 1.04335 16.1831C11.6406 21.4709 21.9427 26.6076 32.3261 31.7792C32.4347 41.9112 32.5431 51.9926 32.6555 62.4819C29.8319 61.0738 27.5088 59.9128 25.1828 58.7542ZM33.0629 32.3921L33.0564 31.7735L33.0525 31.4272L32.6982 31.2507C32.5607 31.1823 32.4239 31.1142 32.2867 31.0458C32.5361 31.1011 32.7831 31.1284 33.0302 31.1284H33.0304C33.3446 31.1284 33.6415 31.0831 33.9164 31.0135C33.4932 31.405 33.2158 31.8539 33.0629 32.3921ZM33.6212 94.1057C33.5098 83.9282 33.4016 73.8897 33.2918 63.9174C33.4858 63.8238 33.5441 63.7879 33.6028 63.7735C33.6474 63.7573 33.7055 63.7406 33.7511 63.7406C33.7666 63.7406 33.7807 63.7425 33.7923 63.747C34.1675 63.8982 34.5512 64.0385 34.9089 64.21C44.819 69.1501 54.7303 74.0925 64.696 79.0624C64.8058 89.2015 64.9127 99.2758 65.0267 109.755C54.3551 104.44 44.056 99.3082 33.6212 94.1057ZM65.4261 79.0568L65.4222 78.7108L65.0683 78.5342L64.7976 78.3992C65.0251 78.4509 65.2512 78.4763 65.4782 78.4763H65.4784C65.6672 78.4762 65.8546 78.4591 66.0448 78.4242C65.7149 78.7333 65.5309 79.0705 65.4297 79.4113L65.4261 79.0568ZM65.6784 108.312C65.7969 98.9689 65.9335 89.6345 66.0434 80.2931C66.0549 79.4678 66.2759 78.8849 67.1943 78.4257C77.0232 73.5912 86.8247 68.7135 96.6361 63.8539C96.8103 63.7687 97.0197 63.7291 97.4848 63.5816C97.529 64.2292 97.5889 64.6813 97.5832 65.1335C97.4621 74.2964 97.3151 83.4629 97.2337 92.6257C97.2239 93.6919 96.8245 94.3155 95.7279 94.8551C86.1942 99.5398 76.6937 104.269 67.1801 108.976C66.8235 109.152 66.4442 109.29 65.9137 109.507C65.8211 109.056 65.6756 108.683 65.6784 108.312ZM97.7918 125.05C97.3341 125.05 96.8662 124.933 96.3337 124.678C86.752 120.077 77.1273 115.527 67.5209 110.959C67.1701 110.792 66.8436 110.582 66.3085 110.285C66.8349 109.952 67.2087 109.655 67.6465 109.447C77.2696 104.896 86.9015 100.363 96.5121 95.7954C97.0218 95.554 97.475 95.4181 97.9389 95.4181C98.3367 95.4181 98.7424 95.518 99.1987 95.7367C108.909 100.386 118.646 105 128.372 109.628C128.665 109.768 128.924 109.952 129.473 110.28C128.793 110.652 128.352 110.924 127.88 111.144C118.378 115.636 108.866 120.118 99.3827 124.628C98.8132 124.9 98.3089 125.05 97.7918 125.05ZM98.3944 127.581C98.4046 126.457 99.0162 125.928 100.057 125.416C108.52 121.267 116.961 117.085 125.413 112.912C126.779 112.237 128.159 111.58 129.888 110.741C129.917 111.616 129.954 112.188 129.945 112.756C129.826 121.81 129.682 130.864 129.606 139.921C129.595 140.967 129.243 141.614 128.127 142.166C118.645 146.819 109.2 151.528 99.7423 156.216C99.3328 156.423 98.895 156.583 98.2961 156.835C98.2005 156.366 98.0408 155.992 98.0465 155.621C98.1618 146.274 98.3145 136.927 98.3944 127.581ZM98.3631 188.665C98.2504 178.587 98.1406 168.5 98.0295 158.386C99.6053 158.644 125.754 171.469 129.439 173.762C129.543 183.763 129.653 193.841 129.765 204.322C119.024 198.967 108.758 193.844 98.3631 188.665ZM130.169 173.757L130.166 173.451L129.873 173.269C129.652 173.131 129.325 172.943 128.908 172.712C129.357 172.856 129.785 172.925 130.219 172.925C130.463 172.925 130.706 172.903 130.953 172.858C130.512 173.228 130.287 173.639 130.172 174.056L130.169 173.757ZM130.523 204.072C130.482 203.4 130.419 202.895 130.428 202.389C130.545 193.278 130.683 184.172 130.785 175.068C130.797 174.135 130.964 173.455 132.07 172.912C141.781 168.147 151.455 163.319 161.149 158.513C161.384 158.397 161.642 158.315 162.065 158.15C162.165 158.574 162.332 158.939 162.325 159.299C162.212 168.693 162.067 178.091 161.969 187.486C161.96 188.361 161.557 188.865 160.682 189.298C151.04 194.049 141.416 198.834 131.781 203.599C131.44 203.767 131.067 203.871 130.523 204.072ZM192.391 205.813C183.008 210.247 173.61 214.661 164.254 219.133C163.634 219.428 163.093 219.578 162.549 219.578C162.009 219.578 161.465 219.43 160.839 219.128C151.505 214.628 142.12 210.203 132.755 205.747C132.227 205.494 131.727 205.2 131.004 204.813C131.644 204.446 132.109 204.136 132.612 203.893C142.116 199.4 151.629 194.921 161.123 190.417C161.679 190.155 162.173 189.99 162.694 189.99C163.095 189.99 163.512 190.087 163.986 190.313C173.631 194.948 183.311 199.525 192.978 204.127C193.328 204.291 193.643 204.502 194.309 204.891C193.464 205.297 192.933 205.562 192.391 205.813ZM194.633 204.241C193.715 203.813 193.105 203.54 192.51 203.242C183.37 198.694 174.244 194.111 165.07 189.602C163.778 188.968 163.253 188.285 163.249 187.002C163.224 178.003 163.091 169.014 163.001 160.015C162.995 159.456 163.05 158.893 163.087 158.124C163.777 158.397 164.27 158.559 164.721 158.784C174.162 163.484 183.598 168.198 193.045 172.887C193.936 173.328 194.501 173.76 194.505 174.761C194.558 184.17 194.683 193.57 194.78 202.972C194.783 203.303 194.706 203.634 194.633 204.241ZM195.167 174.163C195 173.461 194.544 173.021 194.024 172.692C194.406 172.794 194.773 172.843 195.141 172.843C195.533 172.843 195.926 172.787 196.337 172.671C195.603 173.098 195.293 173.619 195.167 174.163ZM195.456 202.785C195.573 193.504 195.71 184.223 195.818 174.942C195.826 174.121 196.019 173.528 196.951 173.069C206.774 168.227 216.577 163.351 226.387 158.489C226.562 158.401 226.769 158.362 227.257 158.205C227.3 158.838 227.361 159.289 227.352 159.739C227.23 168.903 227.09 178.069 226.992 187.231C226.98 188.177 226.782 188.841 225.691 189.38C216.035 194.117 206.419 198.912 196.79 203.687C196.494 203.832 196.172 203.943 195.65 204.161C195.571 203.632 195.452 203.207 195.456 202.785ZM257.226 205.861C247.896 210.272 238.56 214.668 229.243 219.097C228.629 219.391 228.082 219.601 227.488 219.601C227.089 219.601 226.668 219.506 226.193 219.278C216.544 214.635 206.853 210.055 197.18 205.452C196.825 205.283 196.502 205.067 195.973 204.77C196.497 204.434 196.882 204.122 197.33 203.912C206.835 199.411 216.358 194.933 225.849 190.405C226.466 190.113 227.008 189.946 227.567 189.946C228.045 189.946 228.535 190.067 229.093 190.336C238.621 194.918 248.193 199.439 257.742 203.986C258.155 204.181 258.534 204.427 259.303 204.857C258.397 205.295 257.817 205.588 257.226 205.861ZM259.531 204.12C254.194 201.69 249.119 199.003 243.953 196.454C238.748 193.885 233.564 191.271 228.342 188.667C228.232 178.533 228.122 168.497 228.014 158.254C228.641 158.447 229.095 158.521 229.47 158.708C239.046 163.469 248.598 168.247 258.171 173.004C258.937 173.383 259.448 173.753 259.454 174.607C259.512 184.253 259.62 193.892 259.712 203.536C259.715 203.647 259.648 203.756 259.531 204.12Z" fill="url(#paint0_linear_2747_858)"/>
<defs>
<linearGradient id="paint0_linear_2747_858" x1="39.7174" y1="96.6831" x2="214.304" y2="33.8395" gradientUnits="userSpaceOnUse">
<stop stop-color="#335FFF" stop-opacity="0"/>
<stop offset="1" stop-color="#335FFF"/>
</linearGradient>
</defs>
</svg>
