<svg width="585" height="126" viewBox="0 0 585 126" fill="none" xmlns="http://www.w3.org/2000/svg">
<path d="M55.4943 56.5414C51.4138 59.8067 45.7012 62.2557 39.9885 62.2557C26.931 62.2557 17.954 52.4597 17.954 39.3985C17.954 26.3373 26.931 17.3577 39.9885 17.3577C45.7012 17.3577 51.4138 18.9903 55.4943 23.072L57.9425 25.521L71 13.2761L67.7356 10.8271C60.3908 4.29646 50.5977 0.214844 39.9885 0.214844C17.1379 0.214844 0 17.3577 0 40.2148C0 63.072 17.1379 80.2148 39.9885 80.2148C50.5977 80.2148 60.3908 76.1332 67.7356 69.6026L71 67.1536L57.9425 54.0924L55.4943 56.5414Z" fill="white"/>
<path d="M39.1725 53.2768C46.3839 53.2768 52.23 47.429 52.23 40.2155C52.23 33.002 46.3839 27.1543 39.1725 27.1543C31.9611 27.1543 26.115 33.002 26.115 40.2155C26.115 47.429 31.9611 53.2768 39.1725 53.2768Z" fill="#EF4335"/>
<path d="M97.6847 53.0558V46.2745L114.688 19.4876H120.534V28.8739H117.074L106.355 45.837V46.1552H130.517V53.0558H97.6847ZM117.233 60.2148V50.9876L117.392 47.9847V19.4876H125.466V60.2148H117.233ZM140.52 60.7319C139.207 60.7319 138.08 60.2679 137.139 59.3398C136.211 58.3986 135.747 57.2717 135.747 55.9592C135.747 54.6599 136.211 53.5463 137.139 52.6183C138.08 51.6902 139.207 51.2262 140.52 51.2262C141.793 51.2262 142.906 51.6902 143.861 52.6183C144.815 53.5463 145.293 54.6599 145.293 55.9592C145.293 56.8342 145.067 57.6362 144.616 58.3654C144.179 59.0813 143.602 59.658 142.886 60.0955C142.17 60.5198 141.382 60.7319 140.52 60.7319ZM152.248 60.2148L169.131 26.8058V26.5273H149.464V19.4876H178.04V26.6268L161.137 60.2148H152.248Z" fill="white"/>
<path d="M228.098 18.0689C228.697 16.2263 231.303 16.2263 231.902 18.0689L235.837 30.1804C236.105 31.0044 236.873 31.5624 237.739 31.5624H250.474C252.412 31.5624 253.217 34.0416 251.65 35.1804L241.347 42.6657C240.646 43.175 240.353 44.0777 240.621 44.9018L244.556 57.0132C245.155 58.8558 243.046 60.3881 241.478 59.2493L231.176 51.764C230.475 51.2547 229.525 51.2547 228.824 51.764L218.522 59.2493C216.954 60.3881 214.845 58.8558 215.444 57.0132L219.379 44.9018C219.647 44.0777 219.354 43.175 218.653 42.6657L208.35 35.1804C206.783 34.0416 207.588 31.5624 209.526 31.5624H222.261C223.127 31.5624 223.895 31.0044 224.163 30.1804L228.098 18.0689Z" fill="#335FFF"/>
<path d="M228.098 18.0689C228.697 16.2263 231.303 16.2263 231.902 18.0689L235.837 30.1804C236.105 31.0044 236.873 31.5624 237.739 31.5624H250.474C252.412 31.5624 253.217 34.0416 251.65 35.1804L241.347 42.6657C240.646 43.175 240.353 44.0777 240.621 44.9018L244.556 57.0132C245.155 58.8558 243.046 60.3881 241.478 59.2493L231.176 51.764C230.475 51.2547 229.525 51.2547 228.824 51.764L218.522 59.2493C216.954 60.3881 214.845 58.8558 215.444 57.0132L219.379 44.9018C219.647 44.0777 219.354 43.175 218.653 42.6657L208.35 35.1804C206.783 34.0416 207.588 31.5624 209.526 31.5624H222.261C223.127 31.5624 223.895 31.0044 224.163 30.1804L228.098 18.0689Z" fill="url(#paint0_linear_2783_780)"/>
<path d="M284.098 18.0689C284.697 16.2263 287.303 16.2263 287.902 18.0689L291.837 30.1804C292.105 31.0044 292.873 31.5624 293.739 31.5624H306.474C308.412 31.5624 309.217 34.0416 307.65 35.1804L297.347 42.6657C296.646 43.175 296.353 44.0777 296.621 44.9018L300.556 57.0132C301.155 58.8558 299.046 60.3881 297.478 59.2493L287.176 51.764C286.475 51.2547 285.525 51.2547 284.824 51.764L274.522 59.2493C272.954 60.3881 270.845 58.8558 271.444 57.0132L275.379 44.9018C275.647 44.0777 275.354 43.175 274.653 42.6657L264.35 35.1804C262.783 34.0416 263.588 31.5624 265.526 31.5624H278.261C279.127 31.5624 279.895 31.0044 280.163 30.1804L284.098 18.0689Z" fill="#335FFF"/>
<path d="M284.098 18.0689C284.697 16.2263 287.303 16.2263 287.902 18.0689L291.837 30.1804C292.105 31.0044 292.873 31.5624 293.739 31.5624H306.474C308.412 31.5624 309.217 34.0416 307.65 35.1804L297.347 42.6657C296.646 43.175 296.353 44.0777 296.621 44.9018L300.556 57.0132C301.155 58.8558 299.046 60.3881 297.478 59.2493L287.176 51.764C286.475 51.2547 285.525 51.2547 284.824 51.764L274.522 59.2493C272.954 60.3881 270.845 58.8558 271.444 57.0132L275.379 44.9018C275.647 44.0777 275.354 43.175 274.653 42.6657L264.35 35.1804C262.783 34.0416 263.588 31.5624 265.526 31.5624H278.261C279.127 31.5624 279.895 31.0044 280.163 30.1804L284.098 18.0689Z" fill="url(#paint1_linear_2783_780)"/>
<path d="M340.098 18.0689C340.697 16.2263 343.303 16.2263 343.902 18.0689L347.837 30.1804C348.105 31.0044 348.873 31.5624 349.739 31.5624H362.474C364.412 31.5624 365.217 34.0416 363.65 35.1804L353.347 42.6657C352.646 43.175 352.353 44.0777 352.621 44.9018L356.556 57.0132C357.155 58.8558 355.046 60.3881 353.478 59.2493L343.176 51.764C342.475 51.2547 341.525 51.2547 340.824 51.764L330.522 59.2493C328.954 60.3881 326.845 58.8558 327.444 57.0132L331.379 44.9018C331.647 44.0777 331.354 43.175 330.653 42.6657L320.35 35.1804C318.783 34.0416 319.588 31.5624 321.526 31.5624H334.261C335.127 31.5624 335.895 31.0044 336.163 30.1804L340.098 18.0689Z" fill="#335FFF"/>
<path d="M340.098 18.0689C340.697 16.2263 343.303 16.2263 343.902 18.0689L347.837 30.1804C348.105 31.0044 348.873 31.5624 349.739 31.5624H362.474C364.412 31.5624 365.217 34.0416 363.65 35.1804L353.347 42.6657C352.646 43.175 352.353 44.0777 352.621 44.9018L356.556 57.0132C357.155 58.8558 355.046 60.3881 353.478 59.2493L343.176 51.764C342.475 51.2547 341.525 51.2547 340.824 51.764L330.522 59.2493C328.954 60.3881 326.845 58.8558 327.444 57.0132L331.379 44.9018C331.647 44.0777 331.354 43.175 330.653 42.6657L320.35 35.1804C318.783 34.0416 319.588 31.5624 321.526 31.5624H334.261C335.127 31.5624 335.895 31.0044 336.163 30.1804L340.098 18.0689Z" fill="url(#paint2_linear_2783_780)"/>
<path d="M396.098 18.0689C396.697 16.2263 399.303 16.2263 399.902 18.0689L403.837 30.1804C404.105 31.0044 404.873 31.5624 405.739 31.5624H418.474C420.412 31.5624 421.217 34.0416 419.65 35.1804L409.347 42.6657C408.646 43.175 408.353 44.0777 408.621 44.9018L412.556 57.0132C413.155 58.8558 411.046 60.3881 409.478 59.2493L399.176 51.764C398.475 51.2547 397.525 51.2547 396.824 51.764L386.522 59.2493C384.954 60.3881 382.845 58.8558 383.444 57.0132L387.379 44.9018C387.647 44.0777 387.354 43.175 386.653 42.6657L376.35 35.1804C374.783 34.0416 375.588 31.5624 377.526 31.5624H390.261C391.127 31.5624 391.895 31.0044 392.163 30.1804L396.098 18.0689Z" fill="#335FFF"/>
<path d="M396.098 18.0689C396.697 16.2263 399.303 16.2263 399.902 18.0689L403.837 30.1804C404.105 31.0044 404.873 31.5624 405.739 31.5624H418.474C420.412 31.5624 421.217 34.0416 419.65 35.1804L409.347 42.6657C408.646 43.175 408.353 44.0777 408.621 44.9018L412.556 57.0132C413.155 58.8558 411.046 60.3881 409.478 59.2493L399.176 51.764C398.475 51.2547 397.525 51.2547 396.824 51.764L386.522 59.2493C384.954 60.3881 382.845 58.8558 383.444 57.0132L387.379 44.9018C387.647 44.0777 387.354 43.175 386.653 42.6657L376.35 35.1804C374.783 34.0416 375.588 31.5624 377.526 31.5624H390.261C391.127 31.5624 391.895 31.0044 392.163 30.1804L396.098 18.0689Z" fill="url(#paint3_linear_2783_780)"/>
<path d="M452.098 18.0689C452.697 16.2263 455.303 16.2263 455.902 18.0689L459.837 30.1804C460.105 31.0044 460.873 31.5624 461.739 31.5624H474.474C476.412 31.5624 477.217 34.0416 475.65 35.1804L465.347 42.6657C464.646 43.175 464.353 44.0777 464.621 44.9018L468.556 57.0132C469.155 58.8558 467.046 60.3881 465.478 59.2493L455.176 51.764C454.475 51.2547 453.525 51.2547 452.824 51.764L442.522 59.2493C440.954 60.3881 438.845 58.8558 439.444 57.0132L443.379 44.9018C443.647 44.0777 443.354 43.175 442.653 42.6657L432.35 35.1804C430.783 34.0416 431.588 31.5624 433.526 31.5624H446.261C447.127 31.5624 447.895 31.0044 448.163 30.1804L452.098 18.0689Z" fill="white"/>
<path d="M452.054 17.6299C452.667 15.7427 455.334 15.7426 455.946 17.6299L459.973 30.0371C460.075 30.3518 460.249 30.6282 460.472 30.8516V55.9785L455.202 52.1465C454.485 51.6249 453.514 51.6248 452.797 52.1465L442.255 59.8135C440.651 60.98 438.493 59.4109 439.106 57.5234L443.133 45.1172C443.407 44.2731 443.106 43.3479 442.389 42.8262L431.848 35.1582C430.244 33.9917 431.068 31.4524 433.05 31.4521H446.08C446.967 31.4521 447.752 30.881 448.026 30.0371L452.054 17.6299Z" fill="url(#paint4_linear_2783_780)"/>
<path opacity="0.5" d="M1.39773 115.635V113.897L9.06818 101.76H10.3295V104.453H9.47727L3.68182 113.624V113.76H14.0114V115.635H1.39773ZM9.61364 119.215V115.107V114.297V101.76H11.625V119.215H9.61364ZM16.7962 115.635V113.897L24.4666 101.76H25.728V104.453H24.8757L19.0803 113.624V113.76H29.4098V115.635H16.7962ZM25.0121 119.215V115.107V114.297V101.76H27.0234V119.215H25.0121ZM39.3878 119.215V106.124H41.331V108.101H41.4673C41.706 107.453 42.1378 106.928 42.7628 106.525C43.3878 106.121 44.0923 105.919 44.8764 105.919C45.0241 105.919 45.2088 105.922 45.4304 105.928C45.652 105.934 45.8196 105.942 45.9332 105.953V107.999C45.8651 107.982 45.7088 107.956 45.4645 107.922C45.2259 107.882 44.973 107.863 44.706 107.863C44.0696 107.863 43.5014 107.996 43.0014 108.263C42.5071 108.525 42.1151 108.888 41.8253 109.354C41.5412 109.814 41.3991 110.34 41.3991 110.931V119.215H39.3878ZM53.4077 119.488C52.1463 119.488 51.0582 119.209 50.1435 118.652C49.2344 118.09 48.5327 117.306 48.0384 116.3C47.5497 115.289 47.3054 114.113 47.3054 112.772C47.3054 111.431 47.5497 110.249 48.0384 109.226C48.5327 108.198 49.2202 107.397 50.1009 106.823C50.9872 106.243 52.0213 105.953 53.2031 105.953C53.8849 105.953 54.5582 106.067 55.223 106.294C55.8878 106.522 56.4929 106.891 57.0384 107.402C57.5838 107.908 58.0185 108.578 58.3423 109.414C58.6662 110.249 58.8281 111.277 58.8281 112.499V113.351H48.7372V111.613H56.7827C56.7827 110.874 56.6349 110.215 56.3395 109.635C56.0497 109.056 55.6349 108.598 55.0952 108.263C54.5611 107.928 53.9304 107.76 53.2031 107.76C52.402 107.76 51.7088 107.959 51.1236 108.357C50.544 108.749 50.098 109.26 49.7855 109.891C49.473 110.522 49.3168 111.198 49.3168 111.919V113.078C49.3168 114.067 49.4872 114.905 49.8281 115.593C50.1747 116.275 50.6548 116.794 51.2685 117.152C51.8821 117.505 52.5952 117.681 53.4077 117.681C53.9361 117.681 54.4134 117.607 54.8395 117.459C55.2713 117.306 55.6435 117.078 55.956 116.777C56.2685 116.471 56.5099 116.09 56.6804 115.635L58.6236 116.181C58.419 116.84 58.0753 117.419 57.5923 117.919C57.1094 118.414 56.5128 118.8 55.8026 119.078C55.0923 119.351 54.294 119.488 53.4077 119.488ZM72.1939 106.124L67.353 119.215H65.3075L60.4666 106.124H62.6484L66.2621 116.556H66.3984L70.0121 106.124H72.1939ZM74.8487 119.215V106.124H76.8601V119.215H74.8487ZM75.8714 103.942C75.4794 103.942 75.1413 103.809 74.8572 103.542C74.5788 103.275 74.4396 102.953 74.4396 102.578C74.4396 102.203 74.5788 101.882 74.8572 101.615C75.1413 101.348 75.4794 101.215 75.8714 101.215C76.2635 101.215 76.5987 101.348 76.8771 101.615C77.1612 101.882 77.3033 102.203 77.3033 102.578C77.3033 102.953 77.1612 103.275 76.8771 103.542C76.5987 103.809 76.2635 103.942 75.8714 103.942ZM86.0327 119.488C84.7713 119.488 83.6832 119.209 82.7685 118.652C81.8594 118.09 81.1577 117.306 80.6634 116.3C80.1747 115.289 79.9304 114.113 79.9304 112.772C79.9304 111.431 80.1747 110.249 80.6634 109.226C81.1577 108.198 81.8452 107.397 82.7259 106.823C83.6122 106.243 84.6463 105.953 85.8281 105.953C86.5099 105.953 87.1832 106.067 87.848 106.294C88.5128 106.522 89.1179 106.891 89.6634 107.402C90.2088 107.908 90.6435 108.578 90.9673 109.414C91.2912 110.249 91.4531 111.277 91.4531 112.499V113.351H81.3622V111.613H89.4077C89.4077 110.874 89.2599 110.215 88.9645 109.635C88.6747 109.056 88.2599 108.598 87.7202 108.263C87.1861 107.928 86.5554 107.76 85.8281 107.76C85.027 107.76 84.3338 107.959 83.7486 108.357C83.169 108.749 82.723 109.26 82.4105 109.891C82.098 110.522 81.9418 111.198 81.9418 111.919V113.078C81.9418 114.067 82.1122 114.905 82.4531 115.593C82.7997 116.275 83.2798 116.794 83.8935 117.152C84.5071 117.505 85.2202 117.681 86.0327 117.681C86.5611 117.681 87.0384 117.607 87.4645 117.459C87.8963 117.306 88.2685 117.078 88.581 116.777C88.8935 116.471 89.1349 116.09 89.3054 115.635L91.2486 116.181C91.044 116.84 90.7003 117.419 90.2173 117.919C89.7344 118.414 89.1378 118.8 88.4276 119.078C87.7173 119.351 86.919 119.488 86.0327 119.488ZM97.4787 119.215L93.4901 106.124H95.6037L98.4332 116.147H98.5696L101.365 106.124H103.513L106.274 116.113H106.411L109.24 106.124H111.354L107.365 119.215H105.388L102.524 109.158H102.32L99.456 119.215H97.4787ZM123.286 109.056L121.479 109.567C121.365 109.266 121.197 108.973 120.976 108.689C120.76 108.4 120.464 108.161 120.089 107.973C119.714 107.786 119.234 107.692 118.649 107.692C117.848 107.692 117.18 107.877 116.646 108.246C116.118 108.61 115.854 109.073 115.854 109.635C115.854 110.135 116.036 110.53 116.399 110.82C116.763 111.11 117.331 111.351 118.104 111.544L120.047 112.022C121.217 112.306 122.089 112.74 122.663 113.326C123.237 113.905 123.524 114.652 123.524 115.567C123.524 116.317 123.308 116.988 122.876 117.578C122.45 118.169 121.854 118.635 121.087 118.976C120.32 119.317 119.428 119.488 118.411 119.488C117.075 119.488 115.97 119.198 115.095 118.618C114.22 118.039 113.666 117.192 113.433 116.078L115.342 115.601C115.524 116.306 115.868 116.834 116.374 117.186C116.885 117.539 117.553 117.715 118.376 117.715C119.314 117.715 120.058 117.516 120.609 117.118C121.166 116.715 121.445 116.232 121.445 115.669C121.445 115.215 121.286 114.834 120.967 114.527C120.649 114.215 120.161 113.982 119.501 113.828L117.32 113.317C116.121 113.033 115.24 112.593 114.678 111.996C114.121 111.394 113.842 110.641 113.842 109.738C113.842 108.999 114.05 108.346 114.464 107.777C114.885 107.209 115.456 106.763 116.178 106.439C116.905 106.115 117.729 105.953 118.649 105.953C119.945 105.953 120.962 106.238 121.7 106.806C122.445 107.374 122.973 108.124 123.286 109.056ZM138.62 119.488C137.438 119.488 136.401 119.206 135.509 118.644C134.623 118.081 133.93 117.294 133.43 116.283C132.935 115.272 132.688 114.09 132.688 112.738C132.688 111.374 132.935 110.184 133.43 109.167C133.93 108.15 134.623 107.36 135.509 106.797C136.401 106.235 137.438 105.953 138.62 105.953C139.802 105.953 140.836 106.235 141.722 106.797C142.614 107.36 143.308 108.15 143.802 109.167C144.302 110.184 144.552 111.374 144.552 112.738C144.552 114.09 144.302 115.272 143.802 116.283C143.308 117.294 142.614 118.081 141.722 118.644C140.836 119.206 139.802 119.488 138.62 119.488ZM138.62 117.681C139.518 117.681 140.256 117.451 140.836 116.99C141.415 116.53 141.844 115.925 142.123 115.175C142.401 114.425 142.54 113.613 142.54 112.738C142.54 111.863 142.401 111.047 142.123 110.292C141.844 109.536 141.415 108.925 140.836 108.459C140.256 107.993 139.518 107.76 138.62 107.76C137.722 107.76 136.984 107.993 136.404 108.459C135.825 108.925 135.396 109.536 135.117 110.292C134.839 111.047 134.7 111.863 134.7 112.738C134.7 113.613 134.839 114.425 135.117 115.175C135.396 115.925 135.825 116.53 136.404 116.99C136.984 117.451 137.722 117.681 138.62 117.681ZM149.634 111.34V119.215H147.622V106.124H149.565V108.169H149.736C150.043 107.505 150.509 106.971 151.134 106.567C151.759 106.158 152.565 105.953 153.554 105.953C154.44 105.953 155.216 106.135 155.881 106.499C156.545 106.857 157.063 107.402 157.432 108.135C157.801 108.863 157.986 109.783 157.986 110.897V119.215H155.974V111.033C155.974 110.005 155.707 109.203 155.173 108.63C154.639 108.05 153.906 107.76 152.974 107.76C152.332 107.76 151.759 107.9 151.253 108.178C150.753 108.456 150.358 108.863 150.068 109.397C149.778 109.931 149.634 110.578 149.634 111.34ZM182.729 107.215H180.616C180.491 106.607 180.272 106.073 179.96 105.613C179.653 105.152 179.278 104.766 178.835 104.453C178.397 104.135 177.911 103.897 177.377 103.738C176.843 103.578 176.286 103.499 175.707 103.499C174.65 103.499 173.692 103.766 172.835 104.3C171.982 104.834 171.303 105.621 170.798 106.661C170.298 107.701 170.048 108.976 170.048 110.488C170.048 111.999 170.298 113.275 170.798 114.314C171.303 115.354 171.982 116.141 172.835 116.675C173.692 117.209 174.65 117.476 175.707 117.476C176.286 117.476 176.843 117.397 177.377 117.238C177.911 117.078 178.397 116.843 178.835 116.53C179.278 116.212 179.653 115.823 179.96 115.363C180.272 114.897 180.491 114.363 180.616 113.76H182.729C182.57 114.652 182.281 115.451 181.86 116.155C181.44 116.86 180.917 117.459 180.292 117.953C179.667 118.442 178.965 118.814 178.187 119.07C177.414 119.326 176.587 119.453 175.707 119.453C174.218 119.453 172.894 119.09 171.735 118.363C170.576 117.635 169.664 116.601 168.999 115.26C168.335 113.919 168.002 112.328 168.002 110.488C168.002 108.647 168.335 107.056 168.999 105.715C169.664 104.374 170.576 103.34 171.735 102.613C172.894 101.885 174.218 101.522 175.707 101.522C176.587 101.522 177.414 101.65 178.187 101.905C178.965 102.161 179.667 102.536 180.292 103.03C180.917 103.519 181.44 104.115 181.86 104.82C182.281 105.519 182.57 106.317 182.729 107.215ZM187.884 101.76V119.215H185.872V101.76H187.884ZM199.817 113.863V106.124H201.829V119.215H199.817V116.999H199.681C199.374 117.664 198.897 118.229 198.249 118.695C197.602 119.155 196.783 119.385 195.795 119.385C194.977 119.385 194.249 119.206 193.613 118.848C192.977 118.485 192.477 117.939 192.113 117.212C191.749 116.479 191.567 115.556 191.567 114.442V106.124H193.579V114.306C193.579 115.26 193.846 116.022 194.38 116.59C194.92 117.158 195.607 117.442 196.442 117.442C196.942 117.442 197.451 117.314 197.968 117.059C198.491 116.803 198.928 116.411 199.281 115.882C199.638 115.354 199.817 114.681 199.817 113.863ZM211.206 106.124V107.828H204.422V106.124H211.206ZM206.399 102.988H208.411V115.465C208.411 116.033 208.493 116.459 208.658 116.743C208.828 117.022 209.044 117.209 209.305 117.306C209.572 117.397 209.854 117.442 210.149 117.442C210.371 117.442 210.553 117.431 210.695 117.408C210.837 117.38 210.95 117.357 211.036 117.34L211.445 119.147C211.308 119.198 211.118 119.249 210.874 119.3C210.629 119.357 210.32 119.385 209.945 119.385C209.376 119.385 208.82 119.263 208.274 119.019C207.734 118.775 207.286 118.402 206.928 117.902C206.575 117.402 206.399 116.772 206.399 116.01V102.988ZM219.409 119.488C218.182 119.488 217.125 119.198 216.239 118.618C215.352 118.039 214.67 117.24 214.193 116.223C213.716 115.206 213.477 114.044 213.477 112.738C213.477 111.408 213.722 110.235 214.21 109.218C214.705 108.195 215.392 107.397 216.273 106.823C217.159 106.243 218.193 105.953 219.375 105.953C220.295 105.953 221.125 106.124 221.864 106.465C222.602 106.806 223.207 107.283 223.679 107.897C224.151 108.51 224.443 109.226 224.557 110.044H222.545C222.392 109.448 222.051 108.919 221.523 108.459C221 107.993 220.295 107.76 219.409 107.76C218.625 107.76 217.938 107.965 217.347 108.374C216.761 108.777 216.304 109.348 215.974 110.087C215.651 110.82 215.489 111.681 215.489 112.669C215.489 113.681 215.648 114.561 215.966 115.311C216.29 116.061 216.744 116.644 217.33 117.059C217.92 117.473 218.614 117.681 219.409 117.681C219.932 117.681 220.406 117.59 220.832 117.408C221.259 117.226 221.619 116.965 221.915 116.624C222.21 116.283 222.42 115.874 222.545 115.397H224.557C224.443 116.169 224.162 116.865 223.713 117.485C223.27 118.098 222.682 118.587 221.949 118.951C221.222 119.309 220.375 119.488 219.409 119.488ZM229.509 111.34V119.215H227.497V101.76H229.509V108.169H229.679C229.986 107.493 230.446 106.956 231.06 106.559C231.679 106.155 232.503 105.953 233.531 105.953C234.423 105.953 235.205 106.132 235.875 106.49C236.545 106.843 237.065 107.385 237.435 108.118C237.81 108.846 237.997 109.772 237.997 110.897V119.215H235.986V111.033C235.986 109.993 235.716 109.189 235.176 108.621C234.642 108.047 233.901 107.76 232.952 107.76C232.293 107.76 231.702 107.9 231.179 108.178C230.662 108.456 230.253 108.863 229.952 109.397C229.656 109.931 229.509 110.578 229.509 111.34Z" fill="#F0F4FF"/>
<defs>
<linearGradient id="paint0_linear_2783_780" x1="211.14" y1="18.9649" x2="258.394" y2="31.8759" gradientUnits="userSpaceOnUse">
<stop stop-color="#2A9FFF"/>
<stop offset="1" stop-color="#2C23E8"/>
</linearGradient>
<linearGradient id="paint1_linear_2783_780" x1="267.14" y1="18.9649" x2="314.394" y2="31.8759" gradientUnits="userSpaceOnUse">
<stop stop-color="#2A9FFF"/>
<stop offset="1" stop-color="#2C23E8"/>
</linearGradient>
<linearGradient id="paint2_linear_2783_780" x1="323.14" y1="18.9649" x2="370.394" y2="31.8759" gradientUnits="userSpaceOnUse">
<stop stop-color="#2A9FFF"/>
<stop offset="1" stop-color="#2C23E8"/>
</linearGradient>
<linearGradient id="paint3_linear_2783_780" x1="379.14" y1="18.9649" x2="426.394" y2="31.8759" gradientUnits="userSpaceOnUse">
<stop stop-color="#2A9FFF"/>
<stop offset="1" stop-color="#2C23E8"/>
</linearGradient>
<linearGradient id="paint4_linear_2783_780" x1="435.81" y1="21.5184" x2="461.669" y2="26.2509" gradientUnits="userSpaceOnUse">
<stop stop-color="#2A9FFF"/>
<stop offset="1" stop-color="#2C23E8"/>
</linearGradient>
</defs>
</svg>
