<svg width="594" height="227" viewBox="0 0 594 227" fill="none" xmlns="http://www.w3.org/2000/svg">
<path d="M528.016 56.8587C536.677 69.1323 584.011 10 584.011 10L584.011 226.214H11V168.607C11 168.607 86.0738 145.4 107.99 147.531C125.659 149.249 128.129 166.819 145.929 167.202C159.221 167.488 164.368 158.764 177.544 157.366C197.72 155.226 208.426 171.198 228.13 167.202C258.069 161.129 238.224 123.6 266.068 113.107C279.586 108.013 291.361 113.107 304.007 108.189C354.592 88.5181 331.342 24.5878 360.915 24.5878C392.531 24.5878 381.589 90.5638 411.501 78.6827C420.831 74.9767 420.743 66.9556 430.47 63.9295C447.358 58.6758 457.271 84.1146 474.732 78.6827C484.459 75.6566 479.673 60.8447 491.383 63.7136C503.092 66.5826 513.659 36.5118 528.016 56.8587Z" fill="url(#paint0_linear_2719_1089)"/>
<path d="M581.833 12.4092C581.833 12.4092 536.491 68.3074 527.011 56.3904C509.651 34.5675 505.954 67.3804 494.67 64.1952C483.386 61.0101 485.271 75.8497 475.38 78.857C457.624 84.2553 447.543 58.9741 430.369 64.1952C420.478 67.2025 420.567 75.1739 411.079 78.857C380.662 90.6646 391.789 25.0971 359.639 25.0971C329.565 25.0971 353.209 88.6315 301.768 108.181C288.908 113.068 276.934 108.006 263.188 113.068C234.873 123.496 255.053 160.792 224.608 166.828C204.571 170.8 193.685 154.927 173.168 157.053C159.769 158.442 154.535 167.112 141.017 166.828C122.917 166.447 120.405 148.986 102.437 147.279C80.1508 145.161 12.9165 166.828 12.9165 166.828" stroke="#335FFF" stroke-width="5" stroke-linecap="round"/>
<g filter="url(#filter0_f_2719_1089)">
<path d="M581.833 12.4092C581.833 12.4092 536.491 68.3074 527.011 56.3904C509.651 34.5675 505.954 67.3804 494.67 64.1952C483.386 61.0101 485.271 75.8497 475.38 78.857C457.624 84.2553 447.543 58.9741 430.369 64.1952C420.478 67.2025 420.567 75.1739 411.079 78.857C380.662 90.6646 391.789 25.0971 359.639 25.0971C329.565 25.0971 353.209 88.6315 301.768 108.181C288.908 113.068 276.934 108.006 263.188 113.068C234.873 123.496 255.053 160.792 224.608 166.828C204.571 170.8 193.685 154.927 173.168 157.053C159.769 158.442 154.535 167.112 141.017 166.828C122.917 166.447 120.405 148.986 102.437 147.279C80.1508 145.161 12.9165 166.828 12.9165 166.828" stroke="#335FFF" stroke-width="5" stroke-linecap="round"/>
</g>
<defs>
<filter id="filter0_f_2719_1089" x="0.815832" y="0.309179" width="593.117" height="179.259" filterUnits="userSpaceOnUse" color-interpolation-filters="sRGB">
<feFlood flood-opacity="0" result="BackgroundImageFix"/>
<feBlend mode="normal" in="SourceGraphic" in2="BackgroundImageFix" result="shape"/>
<feGaussianBlur stdDeviation="4.8" result="effect1_foregroundBlur_2719_1089"/>
</filter>
<linearGradient id="paint0_linear_2719_1089" x1="297.506" y1="-118.597" x2="297.506" y2="236.812" gradientUnits="userSpaceOnUse">
<stop stop-color="#335FFF"/>
<stop offset="1" stop-color="white" stop-opacity="0"/>
</linearGradient>
</defs>
</svg>
